999
dxflib 2.2.0.0
  0
SECTION
  2
HEADER
  9
$ACADVER
  1
AC1015
  9
$HANDSEED
  5
FFFF
  9
$DIMASZ
 40
2.5
  9
$PLIMMIN
 10
0.0
 20
0.0
  9
$DIMEXE
 40
1.25
  9
$DIMGAP
 40
0.625
  9
$PLIMMAX
 10
210.0
 20
297.0
  9
$PSVPSCALE
 40
1.0
  9
$PINSBASE
 10
105.9083188524590327
 20
147.138131147541003
 30
0.0
  9
$INSUNITS
 70
4
  9
$DIMSTYLE
  2
Standard
  9
$DIMEXO
 40
0.625
  9
$DIMTXT
 40
2.5
  0
ENDSEC
  0
SECTION
  2
TABLES
  0
TABLE
  2
VPORT
  5
8
100
AcDbSymbolTable
 70
1
  0
VPORT
  5
30
100
AcDbSymbolTableRecord
100
AcDbViewportTableRecord
  2
*Active
 70
0
 10
0.0
 20
0.0
 11
1.0
 21
1.0
 12
286.3055555555554861
 22
148.5
 13
0.0
 23
0.0
 14
10.0
 24
10.0
 15
10.0
 25
10.0
 16
0.0
 26
0.0
 36
1.0
 17
0.0
 27
0.0
 37
0.0
 40
297.0
 41
1.92798353909465
 42
50.0
 43
0.0
 44
0.0
 50
0.0
 51
0.0
 71
0
 72
100
 73
1
 74
3
 75
1
 76
1
 77
0
 78
0
281
0
 65
1
110
0.0
120
0.0
130
0.0
111
1.0
121
0.0
131
0.0
112
0.0
122
1.0
132
0.0
 79
0
146
0.0
  0
ENDTAB
  0
TABLE
  2
LTYPE
  5
5
100
AcDbSymbolTable
 70
21
  0
LTYPE
  5
14
100
AcDbSymbolTableRecord
100
AcDbLinetypeTableRecord
  2
ByBlock
 70
0
  3

 72
65
 73
0
 40
0.0
  0
LTYPE
  5
15
100
AcDbSymbolTableRecord
100
AcDbLinetypeTableRecord
  2
ByLayer
 70
0
  3

 72
65
 73
0
 40
0.0
  0
LTYPE
  5
16
100
AcDbSymbolTableRecord
100
AcDbLinetypeTableRecord
  2
CONTINUOUS
 70
0
  3
Solid line
 72
65
 73
0
 40
0.0
  0
LTYPE
  5
31
100
AcDbSymbolTableRecord
100
AcDbLinetypeTableRecord
  2
DOT
 70
0
  3
Dot . . . . . . . . . . . . . . . . . . . . . .
 72
65
 73
2
 40
6.3499999999999996
 49
0.0
 74
0
 49
-6.3499999999999996
 74
0
  0
LTYPE
  5
32
100
AcDbSymbolTableRecord
100
AcDbLinetypeTableRecord
  2
DOT2
 70
0
  3
Dot (.5x) .....................................
 72
65
 73
2
 40
3.1749999999999998
 49
0.0
 74
0
 49
-3.1749999999999998
 74
0
  0
LTYPE
  5
33
100
AcDbSymbolTableRecord
100
AcDbLinetypeTableRecord
  2
DOTX2
 70
0
  3
Dot (2x) .  .  .  .  .  .  .  .  .  .  .  .  .
 72
65
 73
2
 40
12.6999999999999993
 49
0.0
 74
0
 49
-12.6999999999999993
 74
0
  0
LTYPE
  5
34
100
AcDbSymbolTableRecord
100
AcDbLinetypeTableRecord
  2
DASHED
 70
0
  3
Dashed __ __ __ __ __ __ __ __ __ __ __ __ __ _
 72
65
 73
2
 40
19.0500000000000007
 49
12.6999999999999993
 74
0
 49
-6.3499999999999996
 74
0
  0
LTYPE
  5
35
100
AcDbSymbolTableRecord
100
AcDbLinetypeTableRecord
  2
DASHED2
 70
0
  3
Dashed (.5x) _ _ _ _ _ _ _ _ _ _ _ _ _ _ _ _ _
 72
65
 73
2
 40
9.5250000000000004
 49
6.3499999999999996
 74
0
 49
-3.1749999999999998
 74
0
  0
LTYPE
  5
36
100
AcDbSymbolTableRecord
100
AcDbLinetypeTableRecord
  2
DASHEDX2
 70
0
  3
Dashed (2x) ____  ____  ____  ____  ____  ___
 72
65
 73
2
 40
38.1000000000000014
 49
25.3999999999999986
 74
0
 49
-12.6999999999999993
 74
0
  0
LTYPE
  5
37
100
AcDbSymbolTableRecord
100
AcDbLinetypeTableRecord
  2
DASHDOT
 70
0
  3
Dash dot __ . __ . __ . __ . __ . __ . __ . __
 72
65
 73
4
 40
25.3999999999999986
 49
12.6999999999999993
 74
0
 49
-6.3499999999999996
 74
0
 49
0.0
 74
0
 49
-6.3499999999999996
 74
0
  0
LTYPE
  5
38
100
AcDbSymbolTableRecord
100
AcDbLinetypeTableRecord
  2
DASHDOT2
 70
0
  3
Dash dot (.5x) _._._._._._._._._._._._._._._.
 72
65
 73
4
 40
12.6999999999999993
 49
6.3499999999999996
 74
0
 49
-3.1749999999999998
 74
0
 49
0.0
 74
0
 49
-3.1749999999999998
 74
0
  0
LTYPE
  5
39
100
AcDbSymbolTableRecord
100
AcDbLinetypeTableRecord
  2
DASHDOTX2
 70
0
  3
Dash dot (2x) ____  .  ____  .  ____  .  ___
 72
65
 73
4
 40
50.7999999999999972
 49
25.3999999999999986
 74
0
 49
-12.6999999999999993
 74
0
 49
0.0
 74
0
 49
-12.6999999999999993
 74
0
  0
LTYPE
  5
3A
100
AcDbSymbolTableRecord
100
AcDbLinetypeTableRecord
  2
DIVIDE
 70
0
  3
Divide ____ . . ____ . . ____ . . ____ . . ____
 72
65
 73
6
 40
31.75
 49
12.6999999999999993
 74
0
 49
-6.3499999999999996
 74
0
 49
0.0
 74
0
 49
-6.3499999999999996
 74
0
 49
0.0
 74
0
 49
-6.3499999999999996
 74
0
  0
LTYPE
  5
3B
100
AcDbSymbolTableRecord
100
AcDbLinetypeTableRecord
  2
DIVIDE2
 70
0
  3
Divide (.5x) __..__..__..__..__..__..__..__.._
 72
65
 73
6
 40
15.875
 49
6.3499999999999996
 74
0
 49
-3.1749999999999998
 74
0
 49
0.0
 74
0
 49
-3.1749999999999998
 74
0
 49
0.0
 74
0
 49
-3.1749999999999998
 74
0
  0
LTYPE
  5
3C
100
AcDbSymbolTableRecord
100
AcDbLinetypeTableRecord
  2
DIVIDEX2
 70
0
  3
Divide (2x) ________  .  .  ________  .  .  _
 72
65
 73
6
 40
63.5
 49
25.3999999999999986
 74
0
 49
-12.6999999999999993
 74
0
 49
0.0
 74
0
 49
-12.6999999999999993
 74
0
 49
0.0
 74
0
 49
-12.6999999999999993
 74
0
  0
LTYPE
  5
3D
100
AcDbSymbolTableRecord
100
AcDbLinetypeTableRecord
  2
CENTER
 70
0
  3
Center ____ _ ____ _ ____ _ ____ _ ____ _ ____
 72
65
 73
4
 40
50.7999999999999972
 49
31.75
 74
0
 49
-6.3499999999999996
 74
0
 49
6.3499999999999996
 74
0
 49
-6.3499999999999996
 74
0
  0
LTYPE
  5
3E
100
AcDbSymbolTableRecord
100
AcDbLinetypeTableRecord
  2
CENTER2
 70
0
  3
Center (.5x) ___ _ ___ _ ___ _ ___ _ ___ _ ___
 72
65
 73
4
 40
28.5749999999999993
 49
19.0500000000000007
 74
0
 49
-3.1749999999999998
 74
0
 49
3.1749999999999998
 74
0
 49
-3.1749999999999998
 74
0
  0
LTYPE
  5
3F
100
AcDbSymbolTableRecord
100
AcDbLinetypeTableRecord
  2
CENTERX2
 70
0
  3
Center (2x) ________  __  ________  __  _____
 72
65
 73
4
 40
101.5999999999999943
 49
63.5
 74
0
 49
-12.6999999999999993
 74
0
 49
12.6999999999999993
 74
0
 49
-12.6999999999999993
 74
0
  0
LTYPE
  5
40
100
AcDbSymbolTableRecord
100
AcDbLinetypeTableRecord
  2
BORDER
 70
0
  3
Border __ __ . __ __ . __ __ . __ __ . __ __ .
 72
65
 73
6
 40
44.4500000000000028
 49
12.6999999999999993
 74
0
 49
-6.3499999999999996
 74
0
 49
12.6999999999999993
 74
0
 49
-6.3499999999999996
 74
0
 49
0.0
 74
0
 49
-6.3499999999999996
 74
0
  0
LTYPE
  5
41
100
AcDbSymbolTableRecord
100
AcDbLinetypeTableRecord
  2
BORDER2
 70
0
  3
Border (.5x) __.__.__.__.__.__.__.__.__.__.__.
 72
65
 73
6
 40
22.2250000000000014
 49
6.3499999999999996
 74
0
 49
-3.1749999999999998
 74
0
 49
6.3499999999999996
 74
0
 49
-3.1749999999999998
 74
0
 49
0.0
 74
0
 49
-3.1749999999999998
 74
0
  0
LTYPE
  5
42
100
AcDbSymbolTableRecord
100
AcDbLinetypeTableRecord
  2
BORDERX2
 70
0
  3
Border (2x) ____  ____  .  ____  ____  .  ___
 72
65
 73
6
 40
88.9000000000000057
 49
25.3999999999999986
 74
0
 49
-12.6999999999999993
 74
0
 49
25.3999999999999986
 74
0
 49
-12.6999999999999993
 74
0
 49
0.0
 74
0
 49
-12.6999999999999993
 74
0
  0
ENDTAB
  0
TABLE
  2
LAYER
  5
2
100
AcDbSymbolTable
 70
2
  0
LAYER
  5
10
100
AcDbSymbolTableRecord
100
AcDbLayerTableRecord
  2
0
 70
0
 62
7
  6
CONTINUOUS
370
0
390
F
  0
LAYER
  5
43
100
AcDbSymbolTableRecord
100
AcDbLayerTableRecord
  2
sheet_layer
 70
0
 62
7
  6
ByLayer
390
F
  0
ENDTAB
  0
TABLE
  2
STYLE
  5
3
100
AcDbSymbolTable
 70
1
  0
STYLE
  5
11
100
AcDbSymbolTableRecord
100
AcDbTextStyleTableRecord
  2
Standard
 70
0
 40
0.0
 41
0.75
 50
0.0
 71
0
 42
2.5
  3
txt
  4

  0
ENDTAB
  0
TABLE
  2
VIEW
  5
6
100
AcDbSymbolTable
 70
0
  0
ENDTAB
  0
TABLE
  2
UCS
  5
7
100
AcDbSymbolTable
 70
0
  0
ENDTAB
  0
TABLE
  2
APPID
  5
9
100
AcDbSymbolTable
 70
1
  0
APPID
  5
12
100
AcDbSymbolTableRecord
100
AcDbRegAppTableRecord
  2
ACAD
 70
0
  0
ENDTAB
  0
TABLE
  2
DIMSTYLE
  5
A
100
AcDbSymbolTable
 70
1
100
AcDbDimStyleTable
 71
0
  0
DIMSTYLE
105
27
100
AcDbSymbolTableRecord
100
AcDbDimStyleTableRecord
  2
Standard
 41
2.5
 42
0.625
 43
3.75
 44
1.25
 70
0
 73
0
 74
0
 77
1
 78
8
140
2.5
141
2.5
143
0.03937007874016
147
0.625
171
3
172
1
271
2
272
2
274
3
278
44
283
0
284
8
340
11
  0
ENDTAB
  0
TABLE
  2
BLOCK_RECORD
  5
1
100
AcDbSymbolTable
 70
1
  0
BLOCK_RECORD
  5
1F
100
AcDbSymbolTableRecord
100
AcDbBlockTableRecord
  2
*Model_Space
340
22
  0
BLOCK_RECORD
  5
1B
100
AcDbSymbolTableRecord
100
AcDbBlockTableRecord
  2
*Paper_Space
340
1E
  0
BLOCK_RECORD
  5
23
100
AcDbSymbolTableRecord
100
AcDbBlockTableRecord
  2
*Paper_Space0
340
26
  0
ENDTAB
  0
ENDSEC
  0
SECTION
  2
BLOCKS
  0
BLOCK
  5
20
100
AcDbEntity
  8
0
100
AcDbBlockBegin
  2
*Model_Space
 70
0
 10
0.0
 20
0.0
 30
0.0
  3
*Model_Space
  1

  0
ENDBLK
  5
21
100
AcDbEntity
  8
0
100
AcDbBlockEnd
  0
BLOCK
  5
1C
100
AcDbEntity
 67
1
  8
0
100
AcDbBlockBegin
  2
*Paper_Space
 70
0
 10
0.0
 20
0.0
 30
0.0
  3
*Paper_Space
  1

  0
ENDBLK
  5
1D
100
AcDbEntity
 67
1
  8
0
100
AcDbBlockEnd
  0
BLOCK
  5
24
100
AcDbEntity
  8
0
100
AcDbBlockBegin
  2
*Paper_Space0
 70
0
 10
0.0
 20
0.0
 30
0.0
  3
*Paper_Space0
  1

  0
ENDBLK
  5
25
100
AcDbEntity
  8
0
100
AcDbBlockEnd
  0
ENDSEC
  0
SECTION
  2
ENTITIES
  0
LINE
  5
44
100
AcDbEntity
100
AcDbLine
  8
sheet_layer
 62
256
370
18
  6
CONTINUOUS
 10
-84.3419999999999987
 20
64.3917000000000002
 30
0.0
 11
-92.6242000000000019
 21
95.301400000000001
 31
0.0
  0
LINE
  5
45
100
AcDbEntity
100
AcDbLine
  8
sheet_layer
 62
256
370
18
  6
CONTINUOUS
 10
5.0
 20
95.0
 30
0.0
 11
1.0
 21
95.0
 31
0.0
  0
LINE
  5
46
100
AcDbEntity
100
AcDbLine
  8
sheet_layer
 62
256
370
18
  6
CONTINUOUS
 10
5.0
 20
95.0
 30
0.0
 11
52.7584000000000017
 21
95.0
 31
0.0
  0
LINE
  5
47
100
AcDbEntity
100
AcDbLine
  8
sheet_layer
 62
256
370
18
  6
CONTINUOUS
 10
1.0
 20
95.0
 30
0.0
 11
-1.0
 21
95.0
 31
0.0
  0
ARC
  5
48
100
AcDbEntity
  8
sheet_layer
 62
256
370
18
  6
CONTINUOUS
100
AcDbCircle
 10
52.7584000000000017
 20
103.0
 30
0.0
 40
8.0
100
AcDbArc
 50
-90.0
 51
-14.9999999999999982
  0
LINE
  5
49
100
AcDbEntity
100
AcDbLine
  8
sheet_layer
 62
256
370
18
  6
CONTINUOUS
 10
-1.0
 20
95.0
 30
0.0
 11
-5.0
 21
95.0
 31
0.0
  0
LINE
  5
4A
100
AcDbEntity
100
AcDbLine
  8
sheet_layer
 62
256
370
18
  6
CONTINUOUS
 10
60.4857999999999976
 20
100.929000000000002
 30
0.0
 11
60.9727999999999994
 21
102.7469999999999999
 31
0.0
  0
LINE
  5
4B
100
AcDbEntity
100
AcDbLine
  8
sheet_layer
 62
256
370
18
  6
CONTINUOUS
 10
-5.0
 20
95.0
 30
0.0
 11
-52.7584000000000017
 21
95.0
 31
0.0
  0
ARC
  5
4C
100
AcDbEntity
  8
sheet_layer
 62
256
370
18
  6
CONTINUOUS
100
AcDbCircle
 10
62.9046000000000021
 20
102.2289999999999992
 30
0.0
 40
2.0
100
AcDbArc
 50
75.0
 51
165.0
  0
ARC
  5
4D
100
AcDbEntity
  8
sheet_layer
 62
256
370
18
  6
CONTINUOUS
100
AcDbCircle
 10
-52.7584000000000017
 20
103.0
 30
0.0
 40
8.0
100
AcDbArc
 50
-165.0
 51
-90.0
  0
LINE
  5
4E
100
AcDbEntity
100
AcDbLine
  8
sheet_layer
 62
256
370
18
  6
CONTINUOUS
 10
63.4222999999999999
 20
104.1610000000000014
 30
0.0
 11
68.2519000000000062
 21
102.8670000000000044
 31
0.0
  0
LINE
  5
4F
100
AcDbEntity
100
AcDbLine
  8
sheet_layer
 62
256
370
18
  6
CONTINUOUS
 10
-60.4857999999999976
 20
100.929000000000002
 30
0.0
 11
-60.9727999999999994
 21
102.7469999999999999
 31
0.0
  0
ARC
  5
50
100
AcDbEntity
  8
sheet_layer
 62
256
370
18
  6
CONTINUOUS
100
AcDbCircle
 10
67.9930999999999983
 20
101.9009999999999962
 30
0.0
 40
1.0
100
AcDbArc
 50
-14.9999999999999982
 51
75.0
  0
ARC
  5
51
100
AcDbEntity
  8
sheet_layer
 62
256
370
18
  6
CONTINUOUS
100
AcDbCircle
 10
-62.9046000000000021
 20
102.2289999999999992
 30
0.0
 40
2.0
100
AcDbArc
 50
14.9999999999999982
 51
105.0
  0
LINE
  5
52
100
AcDbEntity
100
AcDbLine
  8
sheet_layer
 62
256
370
18
  6
CONTINUOUS
 10
68.9590000000000032
 20
101.6419999999999959
 30
0.0
 11
60.6768000000000001
 21
70.7327999999999975
 31
0.0
  0
LINE
  5
53
100
AcDbEntity
100
AcDbLine
  8
sheet_layer
 62
256
370
18
  6
CONTINUOUS
 10
-63.4222999999999999
 20
104.1610000000000014
 30
0.0
 11
-68.2519000000000062
 21
102.8670000000000044
 31
0.0
  0
ARC
  5
54
100
AcDbEntity
  8
sheet_layer
 62
256
370
18
  6
CONTINUOUS
100
AcDbCircle
 10
62.6086999999999989
 20
70.2151999999999958
 30
0.0
 40
2.0
100
AcDbArc
 50
165.0
 51
-105.0
  0
ARC
  5
55
100
AcDbEntity
  8
sheet_layer
 62
256
370
18
  6
CONTINUOUS
100
AcDbCircle
 10
-67.9930999999999983
 20
101.9009999999999962
 30
0.0
 40
1.0
100
AcDbArc
 50
105.0
 51
-165.0
  0
LINE
  5
56
100
AcDbEntity
100
AcDbLine
  8
sheet_layer
 62
256
370
18
  6
CONTINUOUS
 10
62.0910000000000011
 20
68.283299999999997
 30
0.0
 11
81.8924999999999983
 21
62.9774999999999991
 31
0.0
  0
LINE
  5
57
100
AcDbEntity
100
AcDbLine
  8
sheet_layer
 62
256
370
18
  6
CONTINUOUS
 10
-68.9590000000000032
 20
101.6419999999999959
 30
0.0
 11
-60.6768000000000001
 21
70.7327999999999975
 31
0.0
  0
ARC
  5
58
100
AcDbEntity
  8
sheet_layer
 62
256
370
18
  6
CONTINUOUS
100
AcDbCircle
 10
82.4100999999999999
 20
64.9094000000000051
 30
0.0
 40
2.0
100
AcDbArc
 50
-105.0
 51
-14.9999999999999982
  0
ARC
  5
59
100
AcDbEntity
  8
sheet_layer
 62
256
370
18
  6
CONTINUOUS
100
AcDbCircle
 10
-62.6086999999999989
 20
70.2151999999999958
 30
0.0
 40
2.0
100
AcDbArc
 50
-75.0
 51
14.9999999999999982
  0
LINE
  5
5A
100
AcDbEntity
100
AcDbLine
  8
sheet_layer
 62
256
370
18
  6
CONTINUOUS
 10
84.3419999999999987
 20
64.3917000000000002
 30
0.0
 11
92.6242000000000019
 21
95.301400000000001
 31
0.0
  0
LINE
  5
5B
100
AcDbEntity
100
AcDbLine
  8
sheet_layer
 62
256
370
18
  6
CONTINUOUS
 10
-62.0910000000000011
 20
68.283299999999997
 30
0.0
 11
-81.8924999999999983
 21
62.9774999999999991
 31
0.0
  0
ARC
  5
5C
100
AcDbEntity
  8
sheet_layer
 62
256
370
18
  6
CONTINUOUS
100
AcDbCircle
 10
93.5901000000000067
 20
95.042500000000004
 30
0.0
 40
1.0
100
AcDbArc
 50
75.0
 51
165.0
  0
ARC
  5
5D
100
AcDbEntity
  8
sheet_layer
 62
256
370
18
  6
CONTINUOUS
100
AcDbCircle
 10
-82.4100999999999999
 20
64.9094000000000051
 30
0.0
 40
2.0
100
AcDbArc
 50
-165.0
 51
-75.0
  0
LINE
  5
5E
100
AcDbEntity
100
AcDbLine
  8
sheet_layer
 62
256
370
18
  6
CONTINUOUS
 10
93.8489000000000004
 20
96.008499999999998
 30
0.0
 11
98.678600000000003
 21
94.7143999999999977
 31
0.0
  0
ARC
  5
5F
100
AcDbEntity
  8
sheet_layer
 62
256
370
18
  6
CONTINUOUS
100
AcDbCircle
 10
98.160899999999998
 20
92.7824999999999989
 30
0.0
 40
2.0
100
AcDbArc
 50
-14.9999999999999982
 51
75.0
  0
ARC
  5
60
100
AcDbEntity
  8
sheet_layer
 62
256
370
18
  6
CONTINUOUS
100
AcDbCircle
 10
-93.5901000000000067
 20
95.042500000000004
 30
0.0
 40
1.0
100
AcDbArc
 50
14.9999999999999982
 51
105.0
  0
LINE
  5
61
100
AcDbEntity
100
AcDbLine
  8
sheet_layer
 62
256
370
18
  6
CONTINUOUS
 10
100.0930000000000035
 20
92.2648999999999972
 30
0.0
 11
96.022199999999998
 21
77.0733000000000033
 31
0.0
  0
LINE
  5
62
100
AcDbEntity
100
AcDbLine
  8
sheet_layer
 62
256
370
18
  6
CONTINUOUS
 10
-93.8489000000000004
 20
96.008499999999998
 30
0.0
 11
-98.678600000000003
 21
94.7143999999999977
 31
0.0
  0
ARC
  5
63
100
AcDbEntity
  8
sheet_layer
 62
256
370
18
  6
CONTINUOUS
100
AcDbCircle
 10
125.0
 20
69.3088000000000051
 30
0.0
 40
30.0
100
AcDbArc
 50
165.0
 51
180.0
  0
ARC
  5
64
100
AcDbEntity
  8
sheet_layer
 62
256
370
18
  6
CONTINUOUS
100
AcDbCircle
 10
-98.160899999999998
 20
92.7824999999999989
 30
0.0
 40
2.0
100
AcDbArc
 50
105.0
 51
-165.0
  0
LINE
  5
65
100
AcDbEntity
100
AcDbLine
  8
sheet_layer
 62
256
370
18
  6
CONTINUOUS
 10
95.0
 20
69.3088000000000051
 30
0.0
 11
95.0
 21
5.0
 31
0.0
  0
LINE
  5
66
100
AcDbEntity
100
AcDbLine
  8
sheet_layer
 62
256
370
18
  6
CONTINUOUS
 10
-100.0930000000000035
 20
92.2648999999999972
 30
0.0
 11
-96.022199999999998
 21
77.0733000000000033
 31
0.0
  0
LINE
  5
67
100
AcDbEntity
100
AcDbLine
  8
sheet_layer
 62
256
370
18
  6
CONTINUOUS
 10
95.0
 20
1.0
 30
0.0
 11
95.0
 21
5.0
 31
0.0
  0
ARC
  5
68
100
AcDbEntity
  8
sheet_layer
 62
256
370
18
  6
CONTINUOUS
100
AcDbCircle
 10
-125.0
 20
69.3088000000000051
 30
0.0
 40
30.0
100
AcDbArc
 50
0.0
 51
14.9999999999999982
  0
LINE
  5
69
100
AcDbEntity
100
AcDbLine
  8
sheet_layer
 62
256
370
18
  6
CONTINUOUS
 10
95.0
 20
-1.0
 30
0.0
 11
95.0
 21
1.0
 31
0.0
  0
LINE
  5
6A
100
AcDbEntity
100
AcDbLine
  8
sheet_layer
 62
256
370
18
  6
CONTINUOUS
 10
-95.0
 20
69.3088000000000051
 30
0.0
 11
-95.0
 21
5.0
 31
0.0
  0
LINE
  5
6B
100
AcDbEntity
100
AcDbLine
  8
sheet_layer
 62
256
370
18
  6
CONTINUOUS
 10
95.0
 20
-5.0
 30
0.0
 11
95.0
 21
-1.0
 31
0.0
  0
LINE
  5
6C
100
AcDbEntity
100
AcDbLine
  8
sheet_layer
 62
256
370
18
  6
CONTINUOUS
 10
-95.0
 20
5.0
 30
0.0
 11
-95.0
 21
1.0
 31
0.0
  0
LINE
  5
6D
100
AcDbEntity
100
AcDbLine
  8
sheet_layer
 62
256
370
18
  6
CONTINUOUS
 10
95.0
 20
-69.3088000000000051
 30
0.0
 11
95.0
 21
-5.0
 31
0.0
  0
LINE
  5
6E
100
AcDbEntity
100
AcDbLine
  8
sheet_layer
 62
256
370
18
  6
CONTINUOUS
 10
-95.0
 20
1.0
 30
0.0
 11
-95.0
 21
-1.0
 31
0.0
  0
ARC
  5
6F
100
AcDbEntity
  8
sheet_layer
 62
256
370
18
  6
CONTINUOUS
100
AcDbCircle
 10
125.0
 20
-69.3088000000000051
 30
0.0
 40
30.0
100
AcDbArc
 50
180.0
 51
-165.0
  0
LINE
  5
70
100
AcDbEntity
100
AcDbLine
  8
sheet_layer
 62
256
370
18
  6
CONTINUOUS
 10
-95.0
 20
-1.0
 30
0.0
 11
-95.0
 21
-5.0
 31
0.0
  0
LINE
  5
71
100
AcDbEntity
100
AcDbLine
  8
sheet_layer
 62
256
370
18
  6
CONTINUOUS
 10
100.0930000000000035
 20
-92.2648999999999972
 30
0.0
 11
96.022199999999998
 21
-77.0733000000000033
 31
0.0
  0
LINE
  5
72
100
AcDbEntity
100
AcDbLine
  8
sheet_layer
 62
256
370
18
  6
CONTINUOUS
 10
-95.0
 20
-69.3088000000000051
 30
0.0
 11
-95.0
 21
-5.0
 31
0.0
  0
ARC
  5
73
100
AcDbEntity
  8
sheet_layer
 62
256
370
18
  6
CONTINUOUS
100
AcDbCircle
 10
98.160899999999998
 20
-92.7824999999999989
 30
0.0
 40
2.0
100
AcDbArc
 50
-75.0
 51
14.9999999999999982
  0
ARC
  5
74
100
AcDbEntity
  8
sheet_layer
 62
256
370
18
  6
CONTINUOUS
100
AcDbCircle
 10
-125.0
 20
-69.3088000000000051
 30
0.0
 40
30.0
100
AcDbArc
 50
-14.9999999999999982
 51
0.0
  0
LINE
  5
75
100
AcDbEntity
100
AcDbLine
  8
sheet_layer
 62
256
370
18
  6
CONTINUOUS
 10
93.8489000000000004
 20
-96.008499999999998
 30
0.0
 11
98.678600000000003
 21
-94.7143999999999977
 31
0.0
  0
LINE
  5
76
100
AcDbEntity
100
AcDbLine
  8
sheet_layer
 62
256
370
18
  6
CONTINUOUS
 10
-100.0930000000000035
 20
-92.2648999999999972
 30
0.0
 11
-96.022199999999998
 21
-77.0733000000000033
 31
0.0
  0
ARC
  5
77
100
AcDbEntity
  8
sheet_layer
 62
256
370
18
  6
CONTINUOUS
100
AcDbCircle
 10
93.5901000000000067
 20
-95.042500000000004
 30
0.0
 40
1.0
100
AcDbArc
 50
-165.0
 51
-75.0
  0
ARC
  5
78
100
AcDbEntity
  8
sheet_layer
 62
256
370
18
  6
CONTINUOUS
100
AcDbCircle
 10
-98.160899999999998
 20
-92.7824999999999989
 30
0.0
 40
2.0
100
AcDbArc
 50
165.0
 51
-105.0
  0
LINE
  5
79
100
AcDbEntity
100
AcDbLine
  8
sheet_layer
 62
256
370
18
  6
CONTINUOUS
 10
84.3419999999999987
 20
-64.3917000000000002
 30
0.0
 11
92.6242000000000019
 21
-95.301400000000001
 31
0.0
  0
LINE
  5
7A
100
AcDbEntity
100
AcDbLine
  8
sheet_layer
 62
256
370
18
  6
CONTINUOUS
 10
-93.8489000000000004
 20
-96.008499999999998
 30
0.0
 11
-98.678600000000003
 21
-94.7143999999999977
 31
0.0
  0
ARC
  5
7B
100
AcDbEntity
  8
sheet_layer
 62
256
370
18
  6
CONTINUOUS
100
AcDbCircle
 10
82.4100999999999999
 20
-64.9094000000000051
 30
0.0
 40
2.0
100
AcDbArc
 50
14.9999999999999982
 51
105.0
  0
ARC
  5
7C
100
AcDbEntity
  8
sheet_layer
 62
256
370
18
  6
CONTINUOUS
100
AcDbCircle
 10
-93.5901000000000067
 20
-95.042500000000004
 30
0.0
 40
1.0
100
AcDbArc
 50
-105.0
 51
-14.9999999999999982
  0
LINE
  5
7D
100
AcDbEntity
100
AcDbLine
  8
sheet_layer
 62
256
370
18
  6
CONTINUOUS
 10
62.0910000000000011
 20
-68.283299999999997
 30
0.0
 11
81.8924999999999983
 21
-62.9774999999999991
 31
0.0
  0
LINE
  5
7E
100
AcDbEntity
100
AcDbLine
  8
sheet_layer
 62
256
370
18
  6
CONTINUOUS
 10
-84.3419999999999987
 20
-64.3917000000000002
 30
0.0
 11
-92.6242000000000019
 21
-95.301400000000001
 31
0.0
  0
ARC
  5
7F
100
AcDbEntity
  8
sheet_layer
 62
256
370
18
  6
CONTINUOUS
100
AcDbCircle
 10
62.6086999999999989
 20
-70.2151999999999958
 30
0.0
 40
2.0
100
AcDbArc
 50
105.0
 51
-165.0
  0
ARC
  5
80
100
AcDbEntity
  8
sheet_layer
 62
256
370
18
  6
CONTINUOUS
100
AcDbCircle
 10
-82.4100999999999999
 20
-64.9094000000000051
 30
0.0
 40
2.0
100
AcDbArc
 50
75.0
 51
165.0
  0
LINE
  5
81
100
AcDbEntity
100
AcDbLine
  8
sheet_layer
 62
256
370
18
  6
CONTINUOUS
 10
68.9590000000000032
 20
-101.6419999999999959
 30
0.0
 11
60.6768000000000001
 21
-70.7327999999999975
 31
0.0
  0
LINE
  5
82
100
AcDbEntity
100
AcDbLine
  8
sheet_layer
 62
256
370
18
  6
CONTINUOUS
 10
-62.0910000000000011
 20
-68.283299999999997
 30
0.0
 11
-81.8924999999999983
 21
-62.9774999999999991
 31
0.0
  0
ARC
  5
83
100
AcDbEntity
  8
sheet_layer
 62
256
370
18
  6
CONTINUOUS
100
AcDbCircle
 10
67.9930999999999983
 20
-101.9009999999999962
 30
0.0
 40
1.0
100
AcDbArc
 50
-75.0
 51
14.9999999999999982
  0
ARC
  5
84
100
AcDbEntity
  8
sheet_layer
 62
256
370
18
  6
CONTINUOUS
100
AcDbCircle
 10
-62.6086999999999989
 20
-70.2151999999999958
 30
0.0
 40
2.0
100
AcDbArc
 50
-14.9999999999999982
 51
75.0
  0
LINE
  5
85
100
AcDbEntity
100
AcDbLine
  8
sheet_layer
 62
256
370
18
  6
CONTINUOUS
 10
63.4222999999999999
 20
-104.1610000000000014
 30
0.0
 11
68.2519000000000062
 21
-102.8670000000000044
 31
0.0
  0
LINE
  5
86
100
AcDbEntity
100
AcDbLine
  8
sheet_layer
 62
256
370
18
  6
CONTINUOUS
 10
-68.9590000000000032
 20
-101.6419999999999959
 30
0.0
 11
-60.6768000000000001
 21
-70.7327999999999975
 31
0.0
  0
ARC
  5
87
100
AcDbEntity
  8
sheet_layer
 62
256
370
18
  6
CONTINUOUS
100
AcDbCircle
 10
62.9046000000000021
 20
-102.2289999999999992
 30
0.0
 40
2.0
100
AcDbArc
 50
-165.0
 51
-75.0
  0
ARC
  5
88
100
AcDbEntity
  8
sheet_layer
 62
256
370
18
  6
CONTINUOUS
100
AcDbCircle
 10
-67.9930999999999983
 20
-101.9009999999999962
 30
0.0
 40
1.0
100
AcDbArc
 50
165.0
 51
-105.0
  0
LINE
  5
89
100
AcDbEntity
100
AcDbLine
  8
sheet_layer
 62
256
370
18
  6
CONTINUOUS
 10
60.4857999999999976
 20
-100.929000000000002
 30
0.0
 11
60.9727999999999994
 21
-102.7469999999999999
 31
0.0
  0
LINE
  5
8A
100
AcDbEntity
100
AcDbLine
  8
sheet_layer
 62
256
370
18
  6
CONTINUOUS
 10
-63.4222999999999999
 20
-104.1610000000000014
 30
0.0
 11
-68.2519000000000062
 21
-102.8670000000000044
 31
0.0
  0
ARC
  5
8B
100
AcDbEntity
  8
sheet_layer
 62
256
370
18
  6
CONTINUOUS
100
AcDbCircle
 10
52.7584000000000017
 20
-103.0
 30
0.0
 40
8.0
100
AcDbArc
 50
14.9999999999999982
 51
90.0
  0
ARC
  5
8C
100
AcDbEntity
  8
sheet_layer
 62
256
370
18
  6
CONTINUOUS
100
AcDbCircle
 10
-62.9046000000000021
 20
-102.2289999999999992
 30
0.0
 40
2.0
100
AcDbArc
 50
-105.0
 51
-14.9999999999999982
  0
LINE
  5
8D
100
AcDbEntity
100
AcDbLine
  8
sheet_layer
 62
256
370
18
  6
CONTINUOUS
 10
5.0
 20
-95.0
 30
0.0
 11
52.7584000000000017
 21
-95.0
 31
0.0
  0
LINE
  5
8E
100
AcDbEntity
100
AcDbLine
  8
sheet_layer
 62
256
370
18
  6
CONTINUOUS
 10
-60.4857999999999976
 20
-100.929000000000002
 30
0.0
 11
-60.9727999999999994
 21
-102.7469999999999999
 31
0.0
  0
LINE
  5
8F
100
AcDbEntity
100
AcDbLine
  8
sheet_layer
 62
256
370
18
  6
CONTINUOUS
 10
1.0
 20
-95.0
 30
0.0
 11
5.0
 21
-95.0
 31
0.0
  0
ARC
  5
90
100
AcDbEntity
  8
sheet_layer
 62
256
370
18
  6
CONTINUOUS
100
AcDbCircle
 10
-52.7584000000000017
 20
-103.0
 30
0.0
 40
8.0
100
AcDbArc
 50
90.0
 51
165.0
  0
LINE
  5
91
100
AcDbEntity
100
AcDbLine
  8
sheet_layer
 62
256
370
18
  6
CONTINUOUS
 10
-1.0
 20
-95.0
 30
0.0
 11
1.0
 21
-95.0
 31
0.0
  0
LINE
  5
92
100
AcDbEntity
100
AcDbLine
  8
sheet_layer
 62
256
370
18
  6
CONTINUOUS
 10
-5.0
 20
-95.0
 30
0.0
 11
-52.7584000000000017
 21
-95.0
 31
0.0
  0
LINE
  5
93
100
AcDbEntity
100
AcDbLine
  8
sheet_layer
 62
256
370
18
  6
CONTINUOUS
 10
-5.0
 20
-95.0
 30
0.0
 11
-1.0
 21
-95.0
 31
0.0
  0
ARC
  5
94
100
AcDbEntity
  8
sheet_layer
 62
256
370
18
  6
CONTINUOUS
100
AcDbCircle
 10
80.0
 20
40.0
 30
0.0
 40
6.0
100
AcDbArc
 50
0.0
 51
90.0
  0
LINE
  5
95
100
AcDbEntity
100
AcDbLine
  8
sheet_layer
 62
256
370
18
  6
CONTINUOUS
 10
86.0
 20
40.0
 30
0.0
 11
86.0
 21
-40.0
 31
0.0
  0
LINE
  5
96
100
AcDbEntity
100
AcDbLine
  8
sheet_layer
 62
256
370
18
  6
CONTINUOUS
 10
40.0
 20
46.0
 30
0.0
 11
80.0
 21
46.0
 31
0.0
  0
ARC
  5
97
100
AcDbEntity
  8
sheet_layer
 62
256
370
18
  6
CONTINUOUS
100
AcDbCircle
 10
80.0
 20
-40.0
 30
0.0
 40
6.0
100
AcDbArc
 50
-90.0
 51
0.0000000000002036
  0
ARC
  5
98
100
AcDbEntity
  8
sheet_layer
 62
256
370
18
  6
CONTINUOUS
100
AcDbCircle
 10
40.0
 20
40.0
 30
0.0
 40
6.0
100
AcDbArc
 50
90.0
 51
180.0
  0
LINE
  5
99
100
AcDbEntity
100
AcDbLine
  8
sheet_layer
 62
256
370
18
  6
CONTINUOUS
 10
80.0
 20
-46.0
 30
0.0
 11
40.0
 21
-46.0
 31
0.0
  0
LINE
  5
9A
100
AcDbEntity
100
AcDbLine
  8
sheet_layer
 62
256
370
18
  6
CONTINUOUS
 10
34.0
 20
38.75
 30
0.0
 11
34.0
 21
40.0
 31
0.0
  0
ARC
  5
9B
100
AcDbEntity
  8
sheet_layer
 62
256
370
18
  6
CONTINUOUS
100
AcDbCircle
 10
40.0
 20
-40.0
 30
0.0
 40
6.0
100
AcDbArc
 50
180.0
 51
-90.0
  0
LINE
  5
9C
100
AcDbEntity
100
AcDbLine
  8
sheet_layer
 62
256
370
18
  6
CONTINUOUS
 10
34.0
 20
38.0
 30
0.0
 11
34.0
 21
38.75
 31
0.0
  0
LINE
  5
9D
100
AcDbEntity
100
AcDbLine
  8
sheet_layer
 62
256
370
18
  6
CONTINUOUS
 10
34.0
 20
-40.0
 30
0.0
 11
34.0
 21
-38.75
 31
0.0
  0
ARC
  5
9E
100
AcDbEntity
  8
sheet_layer
 62
256
370
18
  6
CONTINUOUS
100
AcDbCircle
 10
32.0
 20
38.0
 30
0.0
 40
2.0
100
AcDbArc
 50
-90.0
 51
0.0000000000236124
  0
LINE
  5
9F
100
AcDbEntity
100
AcDbLine
  8
sheet_layer
 62
256
370
18
  6
CONTINUOUS
 10
34.0
 20
-38.0
 30
0.0
 11
34.0
 21
-38.75
 31
0.0
  0
LINE
  5
A0
100
AcDbEntity
100
AcDbLine
  8
sheet_layer
 62
256
370
18
  6
CONTINUOUS
 10
25.0
 20
36.0
 30
0.0
 11
32.0
 21
36.0
 31
0.0
  0
ARC
  5
A1
100
AcDbEntity
  8
sheet_layer
 62
256
370
18
  6
CONTINUOUS
100
AcDbCircle
 10
32.0
 20
-38.0
 30
0.0
 40
2.0
100
AcDbArc
 50
-0.0000000000236124
 51
90.0
  0
ARC
  5
A2
100
AcDbEntity
  8
sheet_layer
 62
256
370
18
  6
CONTINUOUS
100
AcDbCircle
 10
25.0
 20
33.0
 30
0.0
 40
3.0
100
AcDbArc
 50
90.0
 51
-180.0
  0
LINE
  5
A3
100
AcDbEntity
100
AcDbLine
  8
sheet_layer
 62
256
370
18
  6
CONTINUOUS
 10
25.0
 20
-36.0
 30
0.0
 11
32.0
 21
-36.0
 31
0.0
  0
LINE
  5
A4
100
AcDbEntity
100
AcDbLine
  8
sheet_layer
 62
256
370
18
  6
CONTINUOUS
 10
22.0
 20
29.0
 30
0.0
 11
22.0
 21
33.0
 31
0.0
  0
ARC
  5
A5
100
AcDbEntity
  8
sheet_layer
 62
256
370
18
  6
CONTINUOUS
100
AcDbCircle
 10
25.0
 20
-33.0
 30
0.0
 40
3.0
100
AcDbArc
 50
180.0
 51
-90.0
  0
ARC
  5
A6
100
AcDbEntity
  8
sheet_layer
 62
256
370
18
  6
CONTINUOUS
100
AcDbCircle
 10
25.0
 20
29.0
 30
0.0
 40
3.0
100
AcDbArc
 50
-180.0
 51
-90.0
  0
LINE
  5
A7
100
AcDbEntity
100
AcDbLine
  8
sheet_layer
 62
256
370
18
  6
CONTINUOUS
 10
22.0
 20
-29.0
 30
0.0
 11
22.0
 21
-33.0
 31
0.0
  0
LINE
  5
A8
100
AcDbEntity
100
AcDbLine
  8
sheet_layer
 62
256
370
18
  6
CONTINUOUS
 10
32.0
 20
26.0
 30
0.0
 11
25.0
 21
26.0
 31
0.0
  0
ARC
  5
A9
100
AcDbEntity
  8
sheet_layer
 62
256
370
18
  6
CONTINUOUS
100
AcDbCircle
 10
25.0
 20
-29.0
 30
0.0
 40
3.0
100
AcDbArc
 50
90.0
 51
180.0
  0
ARC
  5
AA
100
AcDbEntity
  8
sheet_layer
 62
256
370
18
  6
CONTINUOUS
100
AcDbCircle
 10
32.0
 20
24.0
 30
0.0
 40
2.0
100
AcDbArc
 50
0.0
 51
90.0
  0
LINE
  5
AB
100
AcDbEntity
100
AcDbLine
  8
sheet_layer
 62
256
370
18
  6
CONTINUOUS
 10
32.0
 20
-26.0
 30
0.0
 11
25.0
 21
-26.0
 31
0.0
  0
LINE
  5
AC
100
AcDbEntity
100
AcDbLine
  8
sheet_layer
 62
256
370
18
  6
CONTINUOUS
 10
34.0
 20
23.25
 30
0.0
 11
34.0
 21
24.0
 31
0.0
  0
ARC
  5
AD
100
AcDbEntity
  8
sheet_layer
 62
256
370
18
  6
CONTINUOUS
100
AcDbCircle
 10
32.0
 20
-24.0
 30
0.0
 40
2.0
100
AcDbArc
 50
-90.0
 51
0.0
  0
LINE
  5
AE
100
AcDbEntity
100
AcDbLine
  8
sheet_layer
 62
256
370
18
  6
CONTINUOUS
 10
34.0
 20
-23.25
 30
0.0
 11
34.0
 21
23.25
 31
0.0
  0
LINE
  5
AF
100
AcDbEntity
100
AcDbLine
  8
sheet_layer
 62
256
370
18
  6
CONTINUOUS
 10
34.0
 20
-23.25
 30
0.0
 11
34.0
 21
-24.0
 31
0.0
  0
LINE
  5
B0
100
AcDbEntity
100
AcDbLine
  8
sheet_layer
 62
256
370
18
  6
CONTINUOUS
 10
-1.0
 20
22.5
 30
0.0
 11
-12.0
 21
22.5
 31
0.0
  0
ARC
  5
B1
100
AcDbEntity
  8
sheet_layer
 62
256
370
18
  6
CONTINUOUS
100
AcDbCircle
 10
-1.0
 20
20.5
 30
0.0
 40
2.0
100
AcDbArc
 50
0.0
 51
90.0
  0
ARC
  5
B2
100
AcDbEntity
  8
sheet_layer
 62
256
370
18
  6
CONTINUOUS
100
AcDbCircle
 10
-12.0
 20
20.5
 30
0.0
 40
2.0
100
AcDbArc
 50
90.0
 51
180.0
  0
LINE
  5
B3
100
AcDbEntity
100
AcDbLine
  8
sheet_layer
 62
256
370
18
  6
CONTINUOUS
 10
1.0
 20
-20.5
 30
0.0
 11
1.0
 21
20.5
 31
0.0
  0
LINE
  5
B4
100
AcDbEntity
100
AcDbLine
  8
sheet_layer
 62
256
370
18
  6
CONTINUOUS
 10
-14.0
 20
20.5
 30
0.0
 11
-14.0
 21
-20.5
 31
0.0
  0
ARC
  5
B5
100
AcDbEntity
  8
sheet_layer
 62
256
370
18
  6
CONTINUOUS
100
AcDbCircle
 10
-1.0
 20
-20.5
 30
0.0
 40
2.0
100
AcDbArc
 50
-90.0
 51
0.0000000000002036
  0
ARC
  5
B6
100
AcDbEntity
  8
sheet_layer
 62
256
370
18
  6
CONTINUOUS
100
AcDbCircle
 10
-12.0
 20
-20.5
 30
0.0
 40
2.0
100
AcDbArc
 50
180.0
 51
-90.0
  0
LINE
  5
B7
100
AcDbEntity
100
AcDbLine
  8
sheet_layer
 62
256
370
18
  6
CONTINUOUS
 10
-12.0
 20
-22.5
 30
0.0
 11
-1.0
 21
-22.5
 31
0.0
  0
CIRCLE
  5
B8
100
AcDbEntity
100
AcDbCircle
  8
sheet_layer
 62
256
370
18
  6
CONTINUOUS
 10
58.6212000000000018
 20
72.9836999999999989
 30
0.0
 40
1.1000000000000001
  0
CIRCLE
  5
B9
100
AcDbEntity
100
AcDbCircle
  8
sheet_layer
 62
256
370
18
  6
CONTINUOUS
 10
94.7466000000000008
 20
92.6594000000000051
 30
0.0
 40
1.1000000000000001
  0
CIRCLE
  5
BA
100
AcDbEntity
100
AcDbCircle
  8
sheet_layer
 62
256
370
18
  6
CONTINUOUS
 10
66.066599999999994
 20
100.3199999999999932
 30
0.0
 40
1.1000000000000001
  0
CIRCLE
  5
BB
100
AcDbEntity
100
AcDbCircle
  8
sheet_layer
 62
256
370
18
  6
CONTINUOUS
 10
87.3149999999999977
 20
65.1868000000000052
 30
0.0
 40
1.1000000000000001
  0
CIRCLE
  5
BC
100
AcDbEntity
100
AcDbCircle
  8
sheet_layer
 62
256
370
18
  6
CONTINUOUS
 10
58.6212000000000018
 20
-72.9836999999999989
 30
0.0
 40
1.1000000000000001
  0
CIRCLE
  5
BD
100
AcDbEntity
100
AcDbCircle
  8
sheet_layer
 62
256
370
18
  6
CONTINUOUS
 10
87.3149999999999977
 20
-65.1868000000000052
 30
0.0
 40
1.1000000000000001
  0
CIRCLE
  5
BE
100
AcDbEntity
100
AcDbCircle
  8
sheet_layer
 62
256
370
18
  6
CONTINUOUS
 10
-87.3149999999999977
 20
-65.1868000000000052
 30
0.0
 40
1.1000000000000001
  0
CIRCLE
  5
BF
100
AcDbEntity
100
AcDbCircle
  8
sheet_layer
 62
256
370
18
  6
CONTINUOUS
 10
-87.3149999999999977
 20
65.1868000000000052
 30
0.0
 40
1.1000000000000001
  0
CIRCLE
  5
C0
100
AcDbEntity
100
AcDbCircle
  8
sheet_layer
 62
256
370
18
  6
CONTINUOUS
 10
-58.6212000000000018
 20
-72.9836999999999989
 30
0.0
 40
1.1000000000000001
  0
CIRCLE
  5
C1
100
AcDbEntity
100
AcDbCircle
  8
sheet_layer
 62
256
370
18
  6
CONTINUOUS
 10
94.7466000000000008
 20
-92.6594000000000051
 30
0.0
 40
1.1000000000000001
  0
CIRCLE
  5
C2
100
AcDbEntity
100
AcDbCircle
  8
sheet_layer
 62
256
370
18
  6
CONTINUOUS
 10
-66.066599999999994
 20
-100.3199999999999932
 30
0.0
 40
1.1000000000000001
  0
CIRCLE
  5
C3
100
AcDbEntity
100
AcDbCircle
  8
sheet_layer
 62
256
370
18
  6
CONTINUOUS
 10
66.066599999999994
 20
-100.3199999999999932
 30
0.0
 40
1.1000000000000001
  0
CIRCLE
  5
C4
100
AcDbEntity
100
AcDbCircle
  8
sheet_layer
 62
256
370
18
  6
CONTINUOUS
 10
-66.066599999999994
 20
100.3199999999999932
 30
0.0
 40
1.1000000000000001
  0
CIRCLE
  5
C5
100
AcDbEntity
100
AcDbCircle
  8
sheet_layer
 62
256
370
18
  6
CONTINUOUS
 10
-58.6212000000000018
 20
72.9836999999999989
 30
0.0
 40
1.1000000000000001
  0
CIRCLE
  5
C6
100
AcDbEntity
100
AcDbCircle
  8
sheet_layer
 62
256
370
18
  6
CONTINUOUS
 10
-94.7466000000000008
 20
92.6594000000000051
 30
0.0
 40
1.1000000000000001
  0
CIRCLE
  5
C7
100
AcDbEntity
100
AcDbCircle
  8
sheet_layer
 62
256
370
18
  6
CONTINUOUS
 10
-94.7466000000000008
 20
-92.6594000000000051
 30
0.0
 40
1.1000000000000001
  0
ARC
  5
C8
100
AcDbEntity
  8
sheet_layer
 62
256
370
18
  6
CONTINUOUS
100
AcDbCircle
 10
-72.0
 20
37.0
 30
0.0
 40
2.0
100
AcDbArc
 50
-90.0
 51
0.0000000000236124
  0
LINE
  5
C9
100
AcDbEntity
100
AcDbLine
  8
sheet_layer
 62
256
370
18
  6
CONTINUOUS
 10
-72.0
 20
35.0
 30
0.0
 11
-76.0
 21
35.0
 31
0.0
  0
LINE
  5
CA
100
AcDbEntity
100
AcDbLine
  8
sheet_layer
 62
256
370
18
  6
CONTINUOUS
 10
-70.0
 20
43.0
 30
0.0
 11
-70.0
 21
37.0
 31
0.0
  0
ARC
  5
CB
100
AcDbEntity
  8
sheet_layer
 62
256
370
18
  6
CONTINUOUS
100
AcDbCircle
 10
-76.0
 20
37.0
 30
0.0
 40
2.0
100
AcDbArc
 50
-180.0
 51
-90.0
  0
ARC
  5
CC
100
AcDbEntity
  8
sheet_layer
 62
256
370
18
  6
CONTINUOUS
100
AcDbCircle
 10
-72.0
 20
43.0
 30
0.0
 40
2.0
100
AcDbArc
 50
0.0
 51
90.0
  0
LINE
  5
CD
100
AcDbEntity
100
AcDbLine
  8
sheet_layer
 62
256
370
18
  6
CONTINUOUS
 10
-78.0
 20
37.0
 30
0.0
 11
-78.0
 21
43.0
 31
0.0
  0
LINE
  5
CE
100
AcDbEntity
100
AcDbLine
  8
sheet_layer
 62
256
370
18
  6
CONTINUOUS
 10
-76.0
 20
45.0
 30
0.0
 11
-72.0
 21
45.0
 31
0.0
  0
ARC
  5
CF
100
AcDbEntity
  8
sheet_layer
 62
256
370
18
  6
CONTINUOUS
100
AcDbCircle
 10
-76.0
 20
43.0
 30
0.0
 40
2.0
100
AcDbArc
 50
90.0
 51
-180.0
  0
ARC
  5
D0
100
AcDbEntity
  8
sheet_layer
 62
256
370
18
  6
CONTINUOUS
100
AcDbCircle
 10
-46.0
 20
37.0
 30
0.0
 40
2.0
100
AcDbArc
 50
-180.0
 51
-90.0
  0
LINE
  5
D1
100
AcDbEntity
100
AcDbLine
  8
sheet_layer
 62
256
370
18
  6
CONTINUOUS
 10
-48.0
 20
37.0
 30
0.0
 11
-48.0
 21
43.0
 31
0.0
  0
LINE
  5
D2
100
AcDbEntity
100
AcDbLine
  8
sheet_layer
 62
256
370
18
  6
CONTINUOUS
 10
-42.0
 20
35.0
 30
0.0
 11
-46.0
 21
35.0
 31
0.0
  0
ARC
  5
D3
100
AcDbEntity
  8
sheet_layer
 62
256
370
18
  6
CONTINUOUS
100
AcDbCircle
 10
-46.0
 20
43.0
 30
0.0
 40
2.0
100
AcDbArc
 50
90.0
 51
-180.0
  0
ARC
  5
D4
100
AcDbEntity
  8
sheet_layer
 62
256
370
18
  6
CONTINUOUS
100
AcDbCircle
 10
-42.0
 20
37.0
 30
0.0
 40
2.0
100
AcDbArc
 50
-90.0
 51
0.0000000000236124
  0
LINE
  5
D5
100
AcDbEntity
100
AcDbLine
  8
sheet_layer
 62
256
370
18
  6
CONTINUOUS
 10
-46.0
 20
45.0
 30
0.0
 11
-42.0
 21
45.0
 31
0.0
  0
LINE
  5
D6
100
AcDbEntity
100
AcDbLine
  8
sheet_layer
 62
256
370
18
  6
CONTINUOUS
 10
-40.0
 20
43.0
 30
0.0
 11
-40.0
 21
37.0
 31
0.0
  0
ARC
  5
D7
100
AcDbEntity
  8
sheet_layer
 62
256
370
18
  6
CONTINUOUS
100
AcDbCircle
 10
-42.0
 20
43.0
 30
0.0
 40
2.0
100
AcDbArc
 50
0.0
 51
90.0
  0
ARC
  5
D8
100
AcDbEntity
  8
sheet_layer
 62
256
370
18
  6
CONTINUOUS
100
AcDbCircle
 10
-72.0
 20
23.0
 30
0.0
 40
2.0
100
AcDbArc
 50
0.0
 51
90.0
  0
LINE
  5
D9
100
AcDbEntity
100
AcDbLine
  8
sheet_layer
 62
256
370
18
  6
CONTINUOUS
 10
-70.0
 20
23.0
 30
0.0
 11
-70.0
 21
17.0
 31
0.0
  0
LINE
  5
DA
100
AcDbEntity
100
AcDbLine
  8
sheet_layer
 62
256
370
18
  6
CONTINUOUS
 10
-76.0
 20
25.0
 30
0.0
 11
-72.0
 21
25.0
 31
0.0
  0
ARC
  5
DB
100
AcDbEntity
  8
sheet_layer
 62
256
370
18
  6
CONTINUOUS
100
AcDbCircle
 10
-72.0
 20
17.0
 30
0.0
 40
2.0
100
AcDbArc
 50
-90.0
 51
0.0000000000237142
  0
ARC
  5
DC
100
AcDbEntity
  8
sheet_layer
 62
256
370
18
  6
CONTINUOUS
100
AcDbCircle
 10
-76.0
 20
23.0
 30
0.0
 40
2.0
100
AcDbArc
 50
90.0
 51
-180.0
  0
LINE
  5
DD
100
AcDbEntity
100
AcDbLine
  8
sheet_layer
 62
256
370
18
  6
CONTINUOUS
 10
-72.0
 20
15.0
 30
0.0
 11
-76.0
 21
15.0
 31
0.0
  0
LINE
  5
DE
100
AcDbEntity
100
AcDbLine
  8
sheet_layer
 62
256
370
18
  6
CONTINUOUS
 10
-78.0
 20
17.0
 30
0.0
 11
-78.0
 21
23.0
 31
0.0
  0
ARC
  5
DF
100
AcDbEntity
  8
sheet_layer
 62
256
370
18
  6
CONTINUOUS
100
AcDbCircle
 10
-76.0
 20
17.0
 30
0.0
 40
2.0
100
AcDbArc
 50
-180.0
 51
-90.0
  0
ARC
  5
E0
100
AcDbEntity
  8
sheet_layer
 62
256
370
18
  6
CONTINUOUS
100
AcDbCircle
 10
-61.0
 20
43.0
 30
0.0
 40
2.0
100
AcDbArc
 50
90.0
 51
-180.0
  0
LINE
  5
E1
100
AcDbEntity
100
AcDbLine
  8
sheet_layer
 62
256
370
18
  6
CONTINUOUS
 10
-61.0
 20
45.0
 30
0.0
 11
-57.0
 21
45.0
 31
0.0
  0
LINE
  5
E2
100
AcDbEntity
100
AcDbLine
  8
sheet_layer
 62
256
370
18
  6
CONTINUOUS
 10
-63.0
 20
37.0
 30
0.0
 11
-63.0
 21
43.0
 31
0.0
  0
ARC
  5
E3
100
AcDbEntity
  8
sheet_layer
 62
256
370
18
  6
CONTINUOUS
100
AcDbCircle
 10
-57.0
 20
43.0
 30
0.0
 40
2.0
100
AcDbArc
 50
0.0
 51
90.0
  0
ARC
  5
E4
100
AcDbEntity
  8
sheet_layer
 62
256
370
18
  6
CONTINUOUS
100
AcDbCircle
 10
-61.0
 20
37.0
 30
0.0
 40
2.0
100
AcDbArc
 50
-180.0
 51
-90.0
  0
LINE
  5
E5
100
AcDbEntity
100
AcDbLine
  8
sheet_layer
 62
256
370
18
  6
CONTINUOUS
 10
-55.0
 20
43.0
 30
0.0
 11
-55.0
 21
37.0
 31
0.0
  0
LINE
  5
E6
100
AcDbEntity
100
AcDbLine
  8
sheet_layer
 62
256
370
18
  6
CONTINUOUS
 10
-57.0
 20
35.0
 30
0.0
 11
-61.0
 21
35.0
 31
0.0
  0
ARC
  5
E7
100
AcDbEntity
  8
sheet_layer
 62
256
370
18
  6
CONTINUOUS
100
AcDbCircle
 10
-57.0
 20
37.0
 30
0.0
 40
2.0
100
AcDbArc
 50
-90.0
 51
0.0000000000236124
  0
ARC
  5
E8
100
AcDbEntity
  8
sheet_layer
 62
256
370
18
  6
CONTINUOUS
100
AcDbCircle
 10
-76.0
 20
-3.0
 30
0.0
 40
2.0
100
AcDbArc
 50
-180.0
 51
-90.0
  0
LINE
  5
E9
100
AcDbEntity
100
AcDbLine
  8
sheet_layer
 62
256
370
18
  6
CONTINUOUS
 10
-78.0
 20
-3.0
 30
0.0
 11
-78.0
 21
3.0
 31
0.0
  0
LINE
  5
EA
100
AcDbEntity
100
AcDbLine
  8
sheet_layer
 62
256
370
18
  6
CONTINUOUS
 10
-72.0
 20
-5.0
 30
0.0
 11
-76.0
 21
-5.0
 31
0.0
  0
ARC
  5
EB
100
AcDbEntity
  8
sheet_layer
 62
256
370
18
  6
CONTINUOUS
100
AcDbCircle
 10
-76.0
 20
3.0
 30
0.0
 40
2.0
100
AcDbArc
 50
90.0
 51
-180.0
  0
ARC
  5
EC
100
AcDbEntity
  8
sheet_layer
 62
256
370
18
  6
CONTINUOUS
100
AcDbCircle
 10
-72.0
 20
-3.0
 30
0.0
 40
2.0
100
AcDbArc
 50
-90.0
 51
0.0000000000237015
  0
LINE
  5
ED
100
AcDbEntity
100
AcDbLine
  8
sheet_layer
 62
256
370
18
  6
CONTINUOUS
 10
-76.0
 20
5.0
 30
0.0
 11
-72.0
 21
5.0
 31
0.0
  0
LINE
  5
EE
100
AcDbEntity
100
AcDbLine
  8
sheet_layer
 62
256
370
18
  6
CONTINUOUS
 10
-70.0
 20
3.0
 30
0.0
 11
-70.0
 21
-3.0
 31
0.0
  0
ARC
  5
EF
100
AcDbEntity
  8
sheet_layer
 62
256
370
18
  6
CONTINUOUS
100
AcDbCircle
 10
-72.0
 20
3.0
 30
0.0
 40
2.0
100
AcDbArc
 50
0.0
 51
90.0
  0
ARC
  5
F0
100
AcDbEntity
  8
sheet_layer
 62
256
370
18
  6
CONTINUOUS
100
AcDbCircle
 10
-61.0
 20
17.0
 30
0.0
 40
2.0
100
AcDbArc
 50
-180.0
 51
-90.0
  0
LINE
  5
F1
100
AcDbEntity
100
AcDbLine
  8
sheet_layer
 62
256
370
18
  6
CONTINUOUS
 10
-63.0
 20
17.0
 30
0.0
 11
-63.0
 21
23.0
 31
0.0
  0
LINE
  5
F2
100
AcDbEntity
100
AcDbLine
  8
sheet_layer
 62
256
370
18
  6
CONTINUOUS
 10
-57.0
 20
15.0
 30
0.0
 11
-61.0
 21
15.0
 31
0.0
  0
ARC
  5
F3
100
AcDbEntity
  8
sheet_layer
 62
256
370
18
  6
CONTINUOUS
100
AcDbCircle
 10
-61.0
 20
23.0
 30
0.0
 40
2.0
100
AcDbArc
 50
90.0
 51
-180.0
  0
ARC
  5
F4
100
AcDbEntity
  8
sheet_layer
 62
256
370
18
  6
CONTINUOUS
100
AcDbCircle
 10
-57.0
 20
17.0
 30
0.0
 40
2.0
100
AcDbArc
 50
-90.0
 51
0.0000000000237142
  0
LINE
  5
F5
100
AcDbEntity
100
AcDbLine
  8
sheet_layer
 62
256
370
18
  6
CONTINUOUS
 10
-61.0
 20
25.0
 30
0.0
 11
-57.0
 21
25.0
 31
0.0
  0
LINE
  5
F6
100
AcDbEntity
100
AcDbLine
  8
sheet_layer
 62
256
370
18
  6
CONTINUOUS
 10
-55.0
 20
23.0
 30
0.0
 11
-55.0
 21
17.0
 31
0.0
  0
ARC
  5
F7
100
AcDbEntity
  8
sheet_layer
 62
256
370
18
  6
CONTINUOUS
100
AcDbCircle
 10
-57.0
 20
23.0
 30
0.0
 40
2.0
100
AcDbArc
 50
0.0
 51
90.0
  0
ARC
  5
F8
100
AcDbEntity
  8
sheet_layer
 62
256
370
18
  6
CONTINUOUS
100
AcDbCircle
 10
-57.0
 20
-3.0
 30
0.0
 40
2.0
100
AcDbArc
 50
-90.0
 51
0.0000000000237015
  0
LINE
  5
F9
100
AcDbEntity
100
AcDbLine
  8
sheet_layer
 62
256
370
18
  6
CONTINUOUS
 10
-57.0
 20
-5.0
 30
0.0
 11
-61.0
 21
-5.0
 31
0.0
  0
LINE
  5
FA
100
AcDbEntity
100
AcDbLine
  8
sheet_layer
 62
256
370
18
  6
CONTINUOUS
 10
-55.0
 20
3.0
 30
0.0
 11
-55.0
 21
-3.0
 31
0.0
  0
ARC
  5
FB
100
AcDbEntity
  8
sheet_layer
 62
256
370
18
  6
CONTINUOUS
100
AcDbCircle
 10
-61.0
 20
-3.0
 30
0.0
 40
2.0
100
AcDbArc
 50
-180.0
 51
-90.0
  0
ARC
  5
FC
100
AcDbEntity
  8
sheet_layer
 62
256
370
18
  6
CONTINUOUS
100
AcDbCircle
 10
-57.0
 20
3.0
 30
0.0
 40
2.0
100
AcDbArc
 50
0.0
 51
90.0
  0
LINE
  5
FD
100
AcDbEntity
100
AcDbLine
  8
sheet_layer
 62
256
370
18
  6
CONTINUOUS
 10
-63.0
 20
-3.0
 30
0.0
 11
-63.0
 21
3.0
 31
0.0
  0
LINE
  5
FE
100
AcDbEntity
100
AcDbLine
  8
sheet_layer
 62
256
370
18
  6
CONTINUOUS
 10
-61.0
 20
5.0
 30
0.0
 11
-57.0
 21
5.0
 31
0.0
  0
ARC
  5
FF
100
AcDbEntity
  8
sheet_layer
 62
256
370
18
  6
CONTINUOUS
100
AcDbCircle
 10
-61.0
 20
3.0
 30
0.0
 40
2.0
100
AcDbArc
 50
90.0
 51
-180.0
  0
ARC
  5
100
100
AcDbEntity
  8
sheet_layer
 62
256
370
18
  6
CONTINUOUS
100
AcDbCircle
 10
-42.0
 20
3.0
 30
0.0
 40
2.0
100
AcDbArc
 50
0.0
 51
90.0
  0
LINE
  5
101
100
AcDbEntity
100
AcDbLine
  8
sheet_layer
 62
256
370
18
  6
CONTINUOUS
 10
-40.0
 20
3.0
 30
0.0
 11
-40.0
 21
-3.0
 31
0.0
  0
LINE
  5
102
100
AcDbEntity
100
AcDbLine
  8
sheet_layer
 62
256
370
18
  6
CONTINUOUS
 10
-46.0
 20
5.0
 30
0.0
 11
-42.0
 21
5.0
 31
0.0
  0
ARC
  5
103
100
AcDbEntity
  8
sheet_layer
 62
256
370
18
  6
CONTINUOUS
100
AcDbCircle
 10
-42.0
 20
-3.0
 30
0.0
 40
2.0
100
AcDbArc
 50
-90.0
 51
0.0000000000237015
  0
ARC
  5
104
100
AcDbEntity
  8
sheet_layer
 62
256
370
18
  6
CONTINUOUS
100
AcDbCircle
 10
-46.0
 20
3.0
 30
0.0
 40
2.0
100
AcDbArc
 50
90.0
 51
-180.0
  0
LINE
  5
105
100
AcDbEntity
100
AcDbLine
  8
sheet_layer
 62
256
370
18
  6
CONTINUOUS
 10
-42.0
 20
-5.0
 30
0.0
 11
-46.0
 21
-5.0
 31
0.0
  0
LINE
  5
106
100
AcDbEntity
100
AcDbLine
  8
sheet_layer
 62
256
370
18
  6
CONTINUOUS
 10
-48.0
 20
-3.0
 30
0.0
 11
-48.0
 21
3.0
 31
0.0
  0
ARC
  5
107
100
AcDbEntity
  8
sheet_layer
 62
256
370
18
  6
CONTINUOUS
100
AcDbCircle
 10
-46.0
 20
-3.0
 30
0.0
 40
2.0
100
AcDbArc
 50
-180.0
 51
-90.0
  0
ARC
  5
108
100
AcDbEntity
  8
sheet_layer
 62
256
370
18
  6
CONTINUOUS
100
AcDbCircle
 10
-42.0
 20
17.0
 30
0.0
 40
2.0
100
AcDbArc
 50
-90.0
 51
0.0000000000237142
  0
LINE
  5
109
100
AcDbEntity
100
AcDbLine
  8
sheet_layer
 62
256
370
18
  6
CONTINUOUS
 10
-42.0
 20
15.0
 30
0.0
 11
-46.0
 21
15.0
 31
0.0
  0
LINE
  5
10A
100
AcDbEntity
100
AcDbLine
  8
sheet_layer
 62
256
370
18
  6
CONTINUOUS
 10
-40.0
 20
23.0
 30
0.0
 11
-40.0
 21
17.0
 31
0.0
  0
ARC
  5
10B
100
AcDbEntity
  8
sheet_layer
 62
256
370
18
  6
CONTINUOUS
100
AcDbCircle
 10
-46.0
 20
17.0
 30
0.0
 40
2.0
100
AcDbArc
 50
-180.0
 51
-90.0
  0
ARC
  5
10C
100
AcDbEntity
  8
sheet_layer
 62
256
370
18
  6
CONTINUOUS
100
AcDbCircle
 10
-42.0
 20
23.0
 30
0.0
 40
2.0
100
AcDbArc
 50
0.0
 51
90.0
  0
LINE
  5
10D
100
AcDbEntity
100
AcDbLine
  8
sheet_layer
 62
256
370
18
  6
CONTINUOUS
 10
-48.0
 20
17.0
 30
0.0
 11
-48.0
 21
23.0
 31
0.0
  0
LINE
  5
10E
100
AcDbEntity
100
AcDbLine
  8
sheet_layer
 62
256
370
18
  6
CONTINUOUS
 10
-46.0
 20
25.0
 30
0.0
 11
-42.0
 21
25.0
 31
0.0
  0
ARC
  5
10F
100
AcDbEntity
  8
sheet_layer
 62
256
370
18
  6
CONTINUOUS
100
AcDbCircle
 10
-46.0
 20
23.0
 30
0.0
 40
2.0
100
AcDbArc
 50
90.0
 51
-180.0
  0
ARC
  5
110
100
AcDbEntity
  8
sheet_layer
 62
256
370
18
  6
CONTINUOUS
100
AcDbCircle
 10
-42.0
 20
-23.0
 30
0.0
 40
2.0
100
AcDbArc
 50
-90.0
 51
0.0000000000237142
  0
LINE
  5
111
100
AcDbEntity
100
AcDbLine
  8
sheet_layer
 62
256
370
18
  6
CONTINUOUS
 10
-42.0
 20
-25.0
 30
0.0
 11
-46.0
 21
-25.0
 31
0.0
  0
LINE
  5
112
100
AcDbEntity
100
AcDbLine
  8
sheet_layer
 62
256
370
18
  6
CONTINUOUS
 10
-40.0
 20
-17.0
 30
0.0
 11
-40.0
 21
-23.0
 31
0.0
  0
ARC
  5
113
100
AcDbEntity
  8
sheet_layer
 62
256
370
18
  6
CONTINUOUS
100
AcDbCircle
 10
-46.0
 20
-23.0
 30
0.0
 40
2.0
100
AcDbArc
 50
-180.0
 51
-90.0
  0
ARC
  5
114
100
AcDbEntity
  8
sheet_layer
 62
256
370
18
  6
CONTINUOUS
100
AcDbCircle
 10
-42.0
 20
-17.0
 30
0.0
 40
2.0
100
AcDbArc
 50
0.0
 51
90.0
  0
LINE
  5
115
100
AcDbEntity
100
AcDbLine
  8
sheet_layer
 62
256
370
18
  6
CONTINUOUS
 10
-48.0
 20
-23.0
 30
0.0
 11
-48.0
 21
-17.0
 31
0.0
  0
LINE
  5
116
100
AcDbEntity
100
AcDbLine
  8
sheet_layer
 62
256
370
18
  6
CONTINUOUS
 10
-46.0
 20
-15.0
 30
0.0
 11
-42.0
 21
-15.0
 31
0.0
  0
ARC
  5
117
100
AcDbEntity
  8
sheet_layer
 62
256
370
18
  6
CONTINUOUS
100
AcDbCircle
 10
-46.0
 20
-17.0
 30
0.0
 40
2.0
100
AcDbArc
 50
90.0
 51
-180.0
  0
ARC
  5
118
100
AcDbEntity
  8
sheet_layer
 62
256
370
18
  6
CONTINUOUS
100
AcDbCircle
 10
-61.0
 20
-17.0
 30
0.0
 40
2.0
100
AcDbArc
 50
90.0
 51
-180.0
  0
LINE
  5
119
100
AcDbEntity
100
AcDbLine
  8
sheet_layer
 62
256
370
18
  6
CONTINUOUS
 10
-61.0
 20
-15.0
 30
0.0
 11
-57.0
 21
-15.0
 31
0.0
  0
LINE
  5
11A
100
AcDbEntity
100
AcDbLine
  8
sheet_layer
 62
256
370
18
  6
CONTINUOUS
 10
-63.0
 20
-23.0
 30
0.0
 11
-63.0
 21
-17.0
 31
0.0
  0
ARC
  5
11B
100
AcDbEntity
  8
sheet_layer
 62
256
370
18
  6
CONTINUOUS
100
AcDbCircle
 10
-57.0
 20
-17.0
 30
0.0
 40
2.0
100
AcDbArc
 50
0.0
 51
90.0
  0
ARC
  5
11C
100
AcDbEntity
  8
sheet_layer
 62
256
370
18
  6
CONTINUOUS
100
AcDbCircle
 10
-61.0
 20
-23.0
 30
0.0
 40
2.0
100
AcDbArc
 50
-180.0
 51
-90.0
  0
LINE
  5
11D
100
AcDbEntity
100
AcDbLine
  8
sheet_layer
 62
256
370
18
  6
CONTINUOUS
 10
-55.0
 20
-17.0
 30
0.0
 11
-55.0
 21
-23.0
 31
0.0
  0
LINE
  5
11E
100
AcDbEntity
100
AcDbLine
  8
sheet_layer
 62
256
370
18
  6
CONTINUOUS
 10
-57.0
 20
-25.0
 30
0.0
 11
-61.0
 21
-25.0
 31
0.0
  0
ARC
  5
11F
100
AcDbEntity
  8
sheet_layer
 62
256
370
18
  6
CONTINUOUS
100
AcDbCircle
 10
-57.0
 20
-23.0
 30
0.0
 40
2.0
100
AcDbArc
 50
-90.0
 51
0.0000000000237142
  0
ARC
  5
120
100
AcDbEntity
  8
sheet_layer
 62
256
370
18
  6
CONTINUOUS
100
AcDbCircle
 10
-76.0
 20
-17.0
 30
0.0
 40
2.0
100
AcDbArc
 50
90.0
 51
-180.0
  0
LINE
  5
121
100
AcDbEntity
100
AcDbLine
  8
sheet_layer
 62
256
370
18
  6
CONTINUOUS
 10
-76.0
 20
-15.0
 30
0.0
 11
-72.0
 21
-15.0
 31
0.0
  0
LINE
  5
122
100
AcDbEntity
100
AcDbLine
  8
sheet_layer
 62
256
370
18
  6
CONTINUOUS
 10
-78.0
 20
-23.0
 30
0.0
 11
-78.0
 21
-17.0
 31
0.0
  0
ARC
  5
123
100
AcDbEntity
  8
sheet_layer
 62
256
370
18
  6
CONTINUOUS
100
AcDbCircle
 10
-72.0
 20
-17.0
 30
0.0
 40
2.0
100
AcDbArc
 50
0.0
 51
90.0
  0
ARC
  5
124
100
AcDbEntity
  8
sheet_layer
 62
256
370
18
  6
CONTINUOUS
100
AcDbCircle
 10
-76.0
 20
-23.0
 30
0.0
 40
2.0
100
AcDbArc
 50
-180.0
 51
-90.0
  0
LINE
  5
125
100
AcDbEntity
100
AcDbLine
  8
sheet_layer
 62
256
370
18
  6
CONTINUOUS
 10
-70.0
 20
-17.0
 30
0.0
 11
-70.0
 21
-23.0
 31
0.0
  0
LINE
  5
126
100
AcDbEntity
100
AcDbLine
  8
sheet_layer
 62
256
370
18
  6
CONTINUOUS
 10
-72.0
 20
-25.0
 30
0.0
 11
-76.0
 21
-25.0
 31
0.0
  0
ARC
  5
127
100
AcDbEntity
  8
sheet_layer
 62
256
370
18
  6
CONTINUOUS
100
AcDbCircle
 10
-72.0
 20
-23.0
 30
0.0
 40
2.0
100
AcDbArc
 50
-90.0
 51
0.0000000000237142
  0
ARC
  5
128
100
AcDbEntity
  8
sheet_layer
 62
256
370
18
  6
CONTINUOUS
100
AcDbCircle
 10
-76.0
 20
-37.0
 30
0.0
 40
2.0
100
AcDbArc
 50
90.0
 51
-180.0
  0
LINE
  5
129
100
AcDbEntity
100
AcDbLine
  8
sheet_layer
 62
256
370
18
  6
CONTINUOUS
 10
-76.0
 20
-35.0
 30
0.0
 11
-72.0
 21
-35.0
 31
0.0
  0
LINE
  5
12A
100
AcDbEntity
100
AcDbLine
  8
sheet_layer
 62
256
370
18
  6
CONTINUOUS
 10
-78.0
 20
-43.0
 30
0.0
 11
-78.0
 21
-37.0
 31
0.0
  0
ARC
  5
12B
100
AcDbEntity
  8
sheet_layer
 62
256
370
18
  6
CONTINUOUS
100
AcDbCircle
 10
-72.0
 20
-37.0
 30
0.0
 40
2.0
100
AcDbArc
 50
0.0
 51
90.0
  0
ARC
  5
12C
100
AcDbEntity
  8
sheet_layer
 62
256
370
18
  6
CONTINUOUS
100
AcDbCircle
 10
-76.0
 20
-43.0
 30
0.0
 40
2.0
100
AcDbArc
 50
-180.0
 51
-90.0
  0
LINE
  5
12D
100
AcDbEntity
100
AcDbLine
  8
sheet_layer
 62
256
370
18
  6
CONTINUOUS
 10
-70.0
 20
-37.0
 30
0.0
 11
-70.0
 21
-43.0
 31
0.0
  0
LINE
  5
12E
100
AcDbEntity
100
AcDbLine
  8
sheet_layer
 62
256
370
18
  6
CONTINUOUS
 10
-72.0
 20
-45.0
 30
0.0
 11
-76.0
 21
-45.0
 31
0.0
  0
ARC
  5
12F
100
AcDbEntity
  8
sheet_layer
 62
256
370
18
  6
CONTINUOUS
100
AcDbCircle
 10
-72.0
 20
-43.0
 30
0.0
 40
2.0
100
AcDbArc
 50
-90.0
 51
0.0000000000236124
  0
ARC
  5
130
100
AcDbEntity
  8
sheet_layer
 62
256
370
18
  6
CONTINUOUS
100
AcDbCircle
 10
-61.0
 20
-37.0
 30
0.0
 40
2.0
100
AcDbArc
 50
90.0
 51
-180.0
  0
LINE
  5
131
100
AcDbEntity
100
AcDbLine
  8
sheet_layer
 62
256
370
18
  6
CONTINUOUS
 10
-61.0
 20
-35.0
 30
0.0
 11
-57.0
 21
-35.0
 31
0.0
  0
LINE
  5
132
100
AcDbEntity
100
AcDbLine
  8
sheet_layer
 62
256
370
18
  6
CONTINUOUS
 10
-63.0
 20
-43.0
 30
0.0
 11
-63.0
 21
-37.0
 31
0.0
  0
ARC
  5
133
100
AcDbEntity
  8
sheet_layer
 62
256
370
18
  6
CONTINUOUS
100
AcDbCircle
 10
-57.0
 20
-37.0
 30
0.0
 40
2.0
100
AcDbArc
 50
0.0
 51
90.0
  0
ARC
  5
134
100
AcDbEntity
  8
sheet_layer
 62
256
370
18
  6
CONTINUOUS
100
AcDbCircle
 10
-61.0
 20
-43.0
 30
0.0
 40
2.0
100
AcDbArc
 50
-180.0
 51
-90.0
  0
LINE
  5
135
100
AcDbEntity
100
AcDbLine
  8
sheet_layer
 62
256
370
18
  6
CONTINUOUS
 10
-55.0
 20
-37.0
 30
0.0
 11
-55.0
 21
-43.0
 31
0.0
  0
LINE
  5
136
100
AcDbEntity
100
AcDbLine
  8
sheet_layer
 62
256
370
18
  6
CONTINUOUS
 10
-57.0
 20
-45.0
 30
0.0
 11
-61.0
 21
-45.0
 31
0.0
  0
ARC
  5
137
100
AcDbEntity
  8
sheet_layer
 62
256
370
18
  6
CONTINUOUS
100
AcDbCircle
 10
-57.0
 20
-43.0
 30
0.0
 40
2.0
100
AcDbArc
 50
-90.0
 51
0.0000000000236124
  0
ARC
  5
138
100
AcDbEntity
  8
sheet_layer
 62
256
370
18
  6
CONTINUOUS
100
AcDbCircle
 10
-42.0
 20
-37.0
 30
0.0
 40
2.0
100
AcDbArc
 50
0.0
 51
90.0
  0
LINE
  5
139
100
AcDbEntity
100
AcDbLine
  8
sheet_layer
 62
256
370
18
  6
CONTINUOUS
 10
-40.0
 20
-37.0
 30
0.0
 11
-40.0
 21
-43.0
 31
0.0
  0
LINE
  5
13A
100
AcDbEntity
100
AcDbLine
  8
sheet_layer
 62
256
370
18
  6
CONTINUOUS
 10
-46.0
 20
-35.0
 30
0.0
 11
-42.0
 21
-35.0
 31
0.0
  0
ARC
  5
13B
100
AcDbEntity
  8
sheet_layer
 62
256
370
18
  6
CONTINUOUS
100
AcDbCircle
 10
-42.0
 20
-43.0
 30
0.0
 40
2.0
100
AcDbArc
 50
-90.0
 51
0.0000000000236124
  0
ARC
  5
13C
100
AcDbEntity
  8
sheet_layer
 62
256
370
18
  6
CONTINUOUS
100
AcDbCircle
 10
-46.0
 20
-37.0
 30
0.0
 40
2.0
100
AcDbArc
 50
90.0
 51
-180.0
  0
LINE
  5
13D
100
AcDbEntity
100
AcDbLine
  8
sheet_layer
 62
256
370
18
  6
CONTINUOUS
 10
-42.0
 20
-45.0
 30
0.0
 11
-46.0
 21
-45.0
 31
0.0
  0
LINE
  5
13E
100
AcDbEntity
100
AcDbLine
  8
sheet_layer
 62
256
370
18
  6
CONTINUOUS
 10
-48.0
 20
-43.0
 30
0.0
 11
-48.0
 21
-37.0
 31
0.0
  0
ARC
  5
13F
100
AcDbEntity
  8
sheet_layer
 62
256
370
18
  6
CONTINUOUS
100
AcDbCircle
 10
-46.0
 20
-43.0
 30
0.0
 40
2.0
100
AcDbArc
 50
-180.0
 51
-90.0
  0
CIRCLE
  5
140
100
AcDbEntity
100
AcDbCircle
  8
sheet_layer
 62
256
370
18
  6
CONTINUOUS
 10
-23.5
 20
9.0
 30
0.0
 40
1.1000000000000001
  0
CIRCLE
  5
141
100
AcDbEntity
100
AcDbCircle
  8
sheet_layer
 62
256
370
18
  6
CONTINUOUS
 10
-23.5
 20
-9.0
 30
0.0
 40
1.1000000000000001
  0
CIRCLE
  5
142
100
AcDbEntity
100
AcDbCircle
  8
sheet_layer
 62
256
370
18
  6
CONTINUOUS
 10
15.5
 20
-9.0
 30
0.0
 40
1.1000000000000001
  0
CIRCLE
  5
143
100
AcDbEntity
100
AcDbCircle
  8
sheet_layer
 62
256
370
18
  6
CONTINUOUS
 10
15.5
 20
9.0
 30
0.0
 40
1.1000000000000001
  0
CIRCLE
  5
144
100
AcDbEntity
100
AcDbCircle
  8
sheet_layer
 62
256
370
18
  6
CONTINUOUS
 10
25.0
 20
5.0
 30
0.0
 40
1.7
  0
CIRCLE
  5
145
100
AcDbEntity
100
AcDbCircle
  8
sheet_layer
 62
256
370
18
  6
CONTINUOUS
 10
90.5
 20
0.0
 30
0.0
 40
1.7
  0
CIRCLE
  5
146
100
AcDbEntity
100
AcDbCircle
  8
sheet_layer
 62
256
370
18
  6
CONTINUOUS
 10
-33.0
 20
-24.5
 30
0.0
 40
1.7
  0
CIRCLE
  5
147
100
AcDbEntity
100
AcDbCircle
  8
sheet_layer
 62
256
370
18
  6
CONTINUOUS
 10
-33.0
 20
24.5
 30
0.0
 40
1.7
  0
CIRCLE
  5
148
100
AcDbEntity
100
AcDbCircle
  8
sheet_layer
 62
256
370
18
  6
CONTINUOUS
 10
0.0
 20
-90.5
 30
0.0
 40
1.7
  0
CIRCLE
  5
149
100
AcDbEntity
100
AcDbCircle
  8
sheet_layer
 62
256
370
18
  6
CONTINUOUS
 10
0.0
 20
90.5
 30
0.0
 40
1.7
  0
ENDSEC
  0
SECTION
  2
OBJECTS
  0
DICTIONARY
  5
C
100
AcDbDictionary
280
0
281
1
  3
ACAD_GROUP
350
D
  3
ACAD_LAYOUT
350
1A
  3
ACAD_MLINESTYLE
350
17
  3
ACAD_PLOTSETTINGS
350
19
  3
ACAD_PLOTSTYLENAME
350
E
  3
AcDbVariableDictionary
350
14A
  0
DICTIONARY
  5
D
100
AcDbDictionary
280
0
281
1
  0
ACDBDICTIONARYWDFLT
  5
E
100
AcDbDictionary
281
1
  3
Normal
350
F
100
AcDbDictionaryWithDefault
340
F
  0
ACDBPLACEHOLDER
  5
F
  0
DICTIONARY
  5
17
100
AcDbDictionary
280
0
281
1
  3
Standard
350
18
  0
MLINESTYLE
  5
18
100
AcDbMlineStyle
  2
STANDARD
 70
0
  3

 62
256
 51
90.0
 52
90.0
 71
2
 49
0.5
 62
256
  6
BYLAYER
 49
-0.5
 62
256
  6
BYLAYER
  0
DICTIONARY
  5
19
100
AcDbDictionary
280
0
281
1
  0
DICTIONARY
  5
1A
100
AcDbDictionary
281
1
  3
Layout1
350
1E
  3
Layout2
350
26
  3
Model
350
22
  0
LAYOUT
  5
1E
100
AcDbPlotSettings
  1

  2
C:\Program Files\AutoCAD 2002\plotters\DWF ePlot (optimized for plotting).pc3
  4

  6

 40
0.0
 41
0.0
 42
0.0
 43
0.0
 44
0.0
 45
0.0
 46
0.0
 47
0.0
 48
0.0
 49
0.0
140
0.0
141
0.0
142
1.0
143
1.0
 70
688
 72
0
 73
0
 74
5
  7

 75
16
147
1.0
148
0.0
149
0.0
100
AcDbLayout
  1
Layout1
 70
1
 71
1
 10
0.0
 20
0.0
 11
420.0
 21
297.0
 12
0.0
 22
0.0
 32
0.0
 14
100000000000000000000.0
 24
100000000000000000000.0
 34
100000000000000000000.0
 15
-100000000000000000000.0
 25
-100000000000000000000.0
 35
-100000000000000000000.0
146
0.0
 13
0.0
 23
0.0
 33
0.0
 16
1.0
 26
0.0
 36
0.0
 17
0.0
 27
1.0
 37
0.0
 76
0
330
1B
  0
LAYOUT
  5
22
100
AcDbPlotSettings
  1

  2
C:\Program Files\AutoCAD 2002\plotters\DWF ePlot (optimized for plotting).pc3
  4

  6

 40
0.0
 41
0.0
 42
0.0
 43
0.0
 44
0.0
 45
0.0
 46
0.0
 47
0.0
 48
0.0
 49
0.0
140
0.0
141
0.0
142
1.0
143
1.0
 70
1712
 72
0
 73
0
 74
0
  7

 75
0
147
1.0
148
0.0
149
0.0
100
AcDbLayout
  1
Model
 70
1
 71
0
 10
0.0
 20
0.0
 11
12.0
 21
9.0
 12
0.0
 22
0.0
 32
0.0
 14
0.0
 24
0.0
 34
0.0
 15
0.0
 25
0.0
 35
0.0
146
0.0
 13
0.0
 23
0.0
 33
0.0
 16
1.0
 26
0.0
 36
0.0
 17
0.0
 27
1.0
 37
0.0
 76
0
330
1F
  0
LAYOUT
  5
26
100
AcDbPlotSettings
  1

  2
C:\Program Files\AutoCAD 2002\plotters\DWF ePlot (optimized for plotting).pc3
  4

  6

 40
0.0
 41
0.0
 42
0.0
 43
0.0
 44
0.0
 45
0.0
 46
0.0
 47
0.0
 48
0.0
 49
0.0
140
0.0
141
0.0
142
1.0
143
1.0
 70
688
 72
0
 73
0
 74
5
  7

 75
16
147
1.0
148
0.0
149
0.0
100
AcDbLayout
  1
Layout2
 70
1
 71
2
 10
0.0
 20
0.0
 11
12.0
 21
9.0
 12
0.0
 22
0.0
 32
0.0
 14
0.0
 24
0.0
 34
0.0
 15
0.0
 25
0.0
 35
0.0
146
0.0
 13
0.0
 23
0.0
 33
0.0
 16
1.0
 26
0.0
 36
0.0
 17
0.0
 27
1.0
 37
0.0
 76
0
330
23
  0
DICTIONARY
  5
14A
100
AcDbDictionary
281
1
  3
DIMASSOC
350
14C
  3
HIDETEXT
350
14B
  0
DICTIONARYVAR
  5
14B
100
DictionaryVariables
280
0
  1
2
  0
DICTIONARYVAR
  5
14C
100
DictionaryVariables
280
0
  1
1
  0
ENDSEC
  0
EOF
