  0
SECTION
  2
HEADER
  9
$ACADVER
  1
AC1009
  9
$INSBASE
 10
0.0
 20
0.0
 30
0.0
  9
$EXTMIN
 10
0.0
 20
0.0
 30
0.0
  9
$EXTMAX
 10
0.0
 20
0.0
 30
0.0
  0
ENDSEC
  0
SECTION
  2
TABLES
  0
TABLE
  2
VPORT
 70
0
  0
ENDTAB
  0
TABLE
  2
LTYPE
 70
1
  0
LTYPE
  2
CONTINUOUS
 70
0
  3
Solid line
 72
65
 73
0
 40
0.0
  0
ENDTAB
  0
TABLE
  2
LAYER
 70
1
  0
LAYER
  2
0
 70
64
 62
7
  6
continuous
  0
ENDTAB
  0
TABLE
  2
STYLE
 70
1
  0
STYLE
  2
STANDARD
 70
0
 40
0
 41
1.0
 50
0.0
 71
0
 42
1
 3
ARIAL.TTF
 4

  0
ENDTAB
  0
TABLE
  2
VIEW
 70
0
  0
ENDTAB
  0
ENDSEC
  0
SECTION
  2
BLOCKS
  0
BLOCK
  8
0
  2
SHAPE2DVIEW
 70
0
 10
0.0
 20
0.0
 30
0.0
  3
SHAPE2DVIEW
  0
LINE
  8
0
 62
0
 10
205.0
 20
35.0
 30
0.0
 11
9.0
 21
35.0
 31
0.0
  0
ARC
  8
0
 62
0
 10
205.0
 20
45.0
 30
0.0
 40
10.0
 50
-90.0
 51
0.0
  0
ARC
  8
0
 62
0
 10
9.0
 20
45.0
 30
0.0
 40
10.0
 50
-180.0
 51
-90.0
  0
LINE
  8
0
 62
0
 10
215.0
 20
153.0
 30
0.0
 11
215.0
 21
45.0
 31
0.0
  0
LINE
  8
0
 62
0
 10
-1.0
 20
45.0
 30
0.0
 11
-1.0
 21
153.0
 31
0.0
  0
ARC
  8
0
 62
0
 10
205.0
 20
153.0
 30
0.0
 40
10.0
 50
0.0
 51
90.0
  0
ARC
  8
0
 62
0
 10
9.0
 20
153.0
 30
0.0
 40
10.0
 50
90.0
 51
-180.0
  0
LINE
  8
0
 62
0
 10
9.0
 20
163.0
 30
0.0
 11
205.0
 21
163.0
 31
0.0
  0
CIRCLE
  8
0
 62
0
 10
116.5
 20
99.0
 30
0.0
 40
1.5
  0
CIRCLE
  8
0
 62
0
 10
107.0
 20
99.0
 30
0.0
 40
5.0
  0
CIRCLE
  8
0
 62
0
 10
97.5
 20
99.0
 30
0.0
 40
1.5
  0
CIRCLE
  8
0
 62
0
 10
107.0
 20
86.5
 30
0.0
 40
1.5
  0
CIRCLE
  8
0
 62
0
 10
107.0
 20
40.0
 30
0.0
 40
1.5
  0
CIRCLE
  8
0
 62
0
 10
7.0
 20
40.0
 30
0.0
 40
1.0
  0
CIRCLE
  8
0
 62
0
 10
7.0
 20
68.5
 30
0.0
 40
1.0
  0
CIRCLE
  8
0
 62
0
 10
24.5
 20
68.5
 30
0.0
 40
1.0
  0
CIRCLE
  8
0
 62
0
 10
24.5
 20
40.0
 30
0.0
 40
1.0
  0
CIRCLE
  8
0
 62
0
 10
107.0
 20
158.0
 30
0.0
 40
1.5
  0
CIRCLE
  8
0
 62
0
 10
107.0
 20
111.5
 30
0.0
 40
1.5
  0
CIRCLE
  8
0
 62
0
 10
24.5
 20
129.5
 30
0.0
 40
1.0
  0
CIRCLE
  8
0
 62
0
 10
24.5
 20
158.0
 30
0.0
 40
1.0
  0
CIRCLE
  8
0
 62
0
 10
7.0
 20
129.5
 30
0.0
 40
1.0
  0
CIRCLE
  8
0
 62
0
 10
7.0
 20
158.0
 30
0.0
 40
1.0
  0
CIRCLE
  8
0
 62
0
 10
207.0
 20
68.5
 30
0.0
 40
1.0
  0
CIRCLE
  8
0
 62
0
 10
207.0
 20
158.0
 30
0.0
 40
1.0
  0
CIRCLE
  8
0
 62
0
 10
207.0
 20
129.5
 30
0.0
 40
1.0
  0
CIRCLE
  8
0
 62
0
 10
189.5
 20
158.0
 30
0.0
 40
1.0
  0
CIRCLE
  8
0
 62
0
 10
189.5
 20
68.5
 30
0.0
 40
1.0
  0
LINE
  8
0
 62
0
 10
153.5
 20
75.0
 30
0.0
 11
137.5
 21
75.0
 31
0.0
  0
ARC
  8
0
 62
0
 10
153.5
 20
78.0
 30
0.0
 40
3.0
 50
-90.0
 51
0.0
  0
ARC
  8
0
 62
0
 10
137.5
 20
78.0
 30
0.0
 40
3.0
 50
-180.0
 51
-90.0
  0
LINE
  8
0
 62
0
 10
156.5
 20
120.0
 30
0.0
 11
156.5
 21
78.0
 31
0.0
  0
LINE
  8
0
 62
0
 10
134.5
 20
78.0
 30
0.0
 11
134.5
 21
120.0
 31
0.0
  0
ARC
  8
0
 62
0
 10
153.5
 20
120.0
 30
0.0
 40
3.0
 50
-0.0
 51
90.0
  0
ARC
  8
0
 62
0
 10
137.5
 20
120.0
 30
0.0
 40
3.0
 50
90.0
 51
-180.0
  0
LINE
  8
0
 62
0
 10
137.5
 20
123.0
 30
0.0
 11
153.5
 21
123.0
 31
0.0
  0
CIRCLE
  8
0
 62
0
 10
189.5
 20
129.5
 30
0.0
 40
1.0
  0
LINE
  8
0
 62
0
 10
188.5
 20
75.0
 30
0.0
 11
172.5
 21
75.0
 31
0.0
  0
ARC
  8
0
 62
0
 10
188.5
 20
78.0
 30
0.0
 40
3.0
 50
-90.0
 51
0.0
  0
ARC
  8
0
 62
0
 10
172.5
 20
78.0
 30
0.0
 40
3.0
 50
-180.0
 51
-90.0
  0
LINE
  8
0
 62
0
 10
191.5
 20
120.0
 30
0.0
 11
191.5
 21
78.0
 31
0.0
  0
LINE
  8
0
 62
0
 10
169.5
 20
78.0
 30
0.0
 11
169.5
 21
120.0
 31
0.0
  0
ARC
  8
0
 62
0
 10
188.5
 20
120.0
 30
0.0
 40
3.0
 50
-0.0
 51
90.0
  0
ARC
  8
0
 62
0
 10
172.5
 20
120.0
 30
0.0
 40
3.0
 50
90.0
 51
-180.0
  0
LINE
  8
0
 62
0
 10
172.5
 20
123.0
 30
0.0
 11
188.5
 21
123.0
 31
0.0
  0
CIRCLE
  8
0
 62
0
 10
201.0
 20
119.5
 30
0.0
 40
1.5
  0
CIRCLE
  8
0
 62
0
 10
201.0
 20
78.5
 30
0.0
 40
1.5
  0
CIRCLE
  8
0
 62
0
 10
189.5
 20
40.0
 30
0.0
 40
1.0
  0
CIRCLE
  8
0
 62
0
 10
207.0
 20
40.0
 30
0.0
 40
1.0
  0
CIRCLE
  8
0
 62
0
 10
125.0
 20
119.5
 30
0.0
 40
1.5
  0
CIRCLE
  8
0
 62
0
 10
125.0
 20
78.5
 30
0.0
 40
1.5
  0
ENDBLK
  0
ENDSEC
  0
SECTION
  2
ENTITIES
  0
INSERT
  2
SHAPE2DVIEW
  8
0
 10
0.0
 20
0.0
 30
0.0
  0
ENDSEC
  0
EOF
