  0
SECTION
  2
HEADER
  9
$ACADVER
  1
AC1009
  9
$INSBASE
 10
0.0
 20
0.0
 30
0.0
  9
$EXTMIN
 10
0.0
 20
0.0
 30
0.0
  9
$EXTMAX
 10
0.0
 20
0.0
 30
0.0
  0
ENDSEC
  0
SECTION
  2
TABLES
  0
TABLE
  2
VPORT
 70
0
  0
ENDTAB
  0
TABLE
  2
LTYPE
 70
1
  0
LTYPE
  2
CONTINUOUS
 70
0
  3
Solid line
 72
65
 73
0
 40
0.0
  0
ENDTAB
  0
TABLE
  2
LAYER
 70
1
  0
LAYER
  2
0
 70
64
 62
7
  6
continuous
  0
ENDTAB
  0
TABLE
  2
STYLE
 70
1
  0
STYLE
  2
STANDARD
 70
0
 40
0
 41
1.0
 50
0.0
 71
0
 42
1
 3
ARIAL.TTF
 4

  0
ENDTAB
  0
TABLE
  2
VIEW
 70
0
  0
ENDTAB
  0
ENDSEC
  0
SECTION
  2
BLOCKS
  0
BLOCK
  8
0
  2
SHAPE2DVIEW001
 70
0
 10
0.0
 20
0.0
 30
0.0
  3
SHAPE2DVIEW001
  0
LINE
  8
0
 62
0
 10
205.0
 20
193.0
 30
0.0
 11
9.0
 21
193.0
 31
0.0
  0
ARC
  8
0
 62
0
 10
205.0
 20
183.0
 30
0.0
 40
10.0
 50
-0.0
 51
90.0
  0
ARC
  8
0
 62
0
 10
9.0
 20
183.0
 30
0.0
 40
10.0
 50
90.0
 51
180.0
  0
LINE
  8
0
 62
0
 10
215.0
 20
75.0
 30
0.0
 11
215.0
 21
183.0
 31
0.0
  0
LINE
  8
0
 62
0
 10
-1.0
 20
183.0
 30
0.0
 11
-1.0
 21
75.0
 31
0.0
  0
ARC
  8
0
 62
0
 10
205.0
 20
75.0
 30
0.0
 40
10.0
 50
-90.0
 51
-0.0
  0
ARC
  8
0
 62
0
 10
9.0
 20
75.0
 30
0.0
 40
10.0
 50
180.0
 51
-90.0
  0
LINE
  8
0
 62
0
 10
9.0
 20
65.0
 30
0.0
 11
205.0
 21
65.0
 31
0.0
  0
CIRCLE
  8
0
 62
0
 10
7.0
 20
188.0
 30
0.0
 40
1.0
  0
CIRCLE
  8
0
 62
0
 10
7.0
 20
159.5
 30
0.0
 40
1.0
  0
CIRCLE
  8
0
 62
0
 10
7.0
 20
98.5
 30
0.0
 40
1.0
  0
CIRCLE
  8
0
 62
0
 10
24.5
 20
188.0
 30
0.0
 40
1.0
  0
CIRCLE
  8
0
 62
0
 10
24.5
 20
159.5
 30
0.0
 40
1.0
  0
CIRCLE
  8
0
 62
0
 10
24.5
 20
98.5
 30
0.0
 40
1.0
  0
CIRCLE
  8
0
 62
0
 10
189.5
 20
98.5
 30
0.0
 40
1.0
  0
CIRCLE
  8
0
 62
0
 10
107.0
 20
188.0
 30
0.0
 40
1.5
  0
CIRCLE
  8
0
 62
0
 10
189.5
 20
188.0
 30
0.0
 40
1.0
  0
CIRCLE
  8
0
 62
0
 10
7.0
 20
70.0
 30
0.0
 40
1.0
  0
CIRCLE
  8
0
 62
0
 10
24.5
 20
70.0
 30
0.0
 40
1.0
  0
CIRCLE
  8
0
 62
0
 10
189.5
 20
70.0
 30
0.0
 40
1.0
  0
CIRCLE
  8
0
 62
0
 10
107.0
 20
70.0
 30
0.0
 40
1.5
  0
CIRCLE
  8
0
 62
0
 10
207.0
 20
159.5
 30
0.0
 40
1.0
  0
ARC
  8
0
 62
0
 10
203.5
 20
152.0
 30
0.0
 40
3.0
 50
-0.0
 51
90.0
  0
LINE
  8
0
 62
0
 10
206.5
 20
106.0
 30
0.0
 11
206.5
 21
152.0
 31
0.0
  0
ARC
  8
0
 62
0
 10
203.5
 20
106.0
 30
0.0
 40
3.0
 50
-90.0
 51
-0.0
  0
LINE
  8
0
 62
0
 10
122.5
 20
103.0
 30
0.0
 11
203.5
 21
103.0
 31
0.0
  0
ARC
  8
0
 62
0
 10
122.5
 20
106.0
 30
0.0
 40
3.0
 50
180.0
 51
-90.0
  0
LINE
  8
0
 62
0
 10
119.5
 20
152.0
 30
0.0
 11
119.5
 21
106.0
 31
0.0
  0
ARC
  8
0
 62
0
 10
122.5
 20
152.0
 30
0.0
 40
3.0
 50
90.0
 51
180.0
  0
LINE
  8
0
 62
0
 10
124.5
 20
155.0
 30
0.0
 11
122.5
 21
155.0
 31
0.0
  0
LINE
  8
0
 62
0
 10
125.5
 20
155.0
 30
0.0
 11
124.5
 21
155.0
 31
0.0
  0
ARC
  8
0
 62
0
 10
125.5
 20
157.0
 30
0.0
 40
2.0
 50
-90.0
 51
-0.0
  0
LINE
  8
0
 62
0
 10
127.5
 20
167.0
 30
0.0
 11
127.5
 21
157.0
 31
0.0
  0
ARC
  8
0
 62
0
 10
129.5
 20
167.0
 30
0.0
 40
2.0
 50
90.0
 51
-180.0
  0
LINE
  8
0
 62
0
 10
144.5
 20
169.0
 30
0.0
 11
129.5
 21
169.0
 31
0.0
  0
ARC
  8
0
 62
0
 10
144.5
 20
167.0
 30
0.0
 40
2.0
 50
-0.0
 51
90.0
  0
LINE
  8
0
 62
0
 10
146.5
 20
157.0
 30
0.0
 11
146.5
 21
167.0
 31
0.0
  0
ARC
  8
0
 62
0
 10
148.5
 20
157.0
 30
0.0
 40
2.0
 50
-180.0
 51
-90.0
  0
LINE
  8
0
 62
0
 10
149.5
 20
155.0
 30
0.0
 11
148.5
 21
155.0
 31
0.0
  0
LINE
  8
0
 62
0
 10
203.5
 20
155.0
 30
0.0
 11
149.5
 21
155.0
 31
0.0
  0
CIRCLE
  8
0
 62
0
 10
189.5
 20
159.5
 30
0.0
 40
1.0
  0
CIRCLE
  8
0
 62
0
 10
207.0
 20
188.0
 30
0.0
 40
1.0
  0
CIRCLE
  8
0
 62
0
 10
207.0
 20
70.0
 30
0.0
 40
1.0
  0
CIRCLE
  8
0
 62
0
 10
207.0
 20
98.5
 30
0.0
 40
1.0
  0
ENDBLK
  0
ENDSEC
  0
SECTION
  2
ENTITIES
  0
INSERT
  2
SHAPE2DVIEW001
  8
0
 10
0.0
 20
0.0
 30
0.0
  0
ENDSEC
  0
EOF
