<?xml version="1.0" encoding="UTF-8" standalone="no"?>
<svg
   xmlns:dc="http://purl.org/dc/elements/1.1/"
   xmlns:cc="http://creativecommons.org/ns#"
   xmlns:rdf="http://www.w3.org/1999/02/22-rdf-syntax-ns#"
   xmlns:svg="http://www.w3.org/2000/svg"
   xmlns="http://www.w3.org/2000/svg"
   xmlns:sodipodi="http://sodipodi.sourceforge.net/DTD/sodipodi-0.dtd"
   xmlns:inkscape="http://www.inkscape.org/namespaces/inkscape"
   width="810.56592"
   height="414.15845"
   viewBox="0 0 228.75969 116.88472"
   version="1.1"
   id="svg2"
   inkscape:version="0.48.3.1 r9886"
   sodipodi:docname="panel.svg">
  <metadata
     id="metadata49">
    <rdf:RDF>
      <cc:Work
         rdf:about="">
        <dc:format>image/svg+xml</dc:format>
        <dc:type
           rdf:resource="http://purl.org/dc/dcmitype/StillImage" />
      </cc:Work>
    </rdf:RDF>
  </metadata>
  <defs
     id="defs47" />
  <sodipodi:namedview
     pagecolor="#ffffff"
     bordercolor="#666666"
     borderopacity="1"
     objecttolerance="10"
     gridtolerance="10"
     guidetolerance="10"
     inkscape:pageopacity="0"
     inkscape:pageshadow="2"
     inkscape:window-width="1092"
     inkscape:window-height="802"
     id="namedview45"
     showgrid="false"
     fit-margin-top="5"
     fit-margin-left="5"
     fit-margin-right="5"
     fit-margin-bottom="5"
     inkscape:zoom="0.83386565"
     inkscape:cx="474.63495"
     inkscape:cy="244.73289"
     inkscape:window-x="2127"
     inkscape:window-y="222"
     inkscape:window-maximized="0"
     inkscape:current-layer="svg2" />
  <g
     id="g6"
     transform="matrix(0,-1,-1,0,121.7861,49.786111)"
     style="fill:none;stroke:#000000;stroke-width:0.085;stroke-linecap:butt;stroke-linejoin:miter;stroke-miterlimit:4;stroke-dasharray:none">
    <path
       id="1"
       d="M -55.6818,69.4864 -26.6706,52.8166"
       inkscape:connector-curvature="0"
       style="stroke-width:0.085;stroke-miterlimit:4;stroke-dasharray:none" />
    <path
       id="2"
       d="M -26.6706,52.8166 -52.0304,9.26932"
       inkscape:connector-curvature="0"
       style="stroke-width:0.085;stroke-miterlimit:4;stroke-dasharray:none" />
    <path
       id="3"
       d="m -52.0304,9.26933 -6.6572,0"
       inkscape:connector-curvature="0"
       style="stroke-width:0.085;stroke-miterlimit:4;stroke-dasharray:none" />
    <path
       id="4"
       d="M -58.6876,9.26933 -65.6362,2.6515"
       inkscape:connector-curvature="0"
       style="stroke-width:0.085;stroke-miterlimit:4;stroke-dasharray:none" />
    <path
       id="5"
       d="m -65.6362,2.6515 0,-11.98858"
       inkscape:connector-curvature="0"
       style="stroke-width:0.085;stroke-miterlimit:4;stroke-dasharray:none" />
    <path
       id="6"
       d="m -65.6362,-9.33708 20.503,0"
       inkscape:connector-curvature="0"
       style="stroke-width:0.085;stroke-miterlimit:4;stroke-dasharray:none" />
    <path
       id="7"
       d="m -45.1332,-9.33708 0,-3.37822"
       inkscape:connector-curvature="0"
       style="stroke-width:0.085;stroke-miterlimit:4;stroke-dasharray:none" />
    <path
       id="8"
       d="m -45.1332,-12.7153 5.501,0"
       inkscape:connector-curvature="0"
       style="stroke-width:0.085;stroke-miterlimit:4;stroke-dasharray:none" />
    <path
       id="9"
       d="m -39.6322,-12.7153 0,-24.5225"
       inkscape:connector-curvature="0"
       style="stroke-width:0.085;stroke-miterlimit:4;stroke-dasharray:none" />
    <path
       id="10"
       d="m -39.6322,-37.2378 -5.5877,0"
       inkscape:connector-curvature="0"
       style="stroke-width:0.085;stroke-miterlimit:4;stroke-dasharray:none" />
    <path
       id="11"
       d="m -45.2199,-37.2378 0,-9.3024"
       inkscape:connector-curvature="0"
       style="stroke-width:0.085;stroke-miterlimit:4;stroke-dasharray:none" />
    <path
       id="12"
       d="m -45.2199,-46.5402 28.8263,-6.8214"
       inkscape:connector-curvature="0"
       style="stroke-width:0.085;stroke-miterlimit:4;stroke-dasharray:none" />
    <path
       id="13"
       d="m -16.3936,-53.3616 0,-52.1514"
       inkscape:connector-curvature="0"
       style="stroke-width:0.085;stroke-miterlimit:4;stroke-dasharray:none" />
    <path
       id="14"
       d="m -16.3936,-105.513 27.286,0"
       inkscape:connector-curvature="0"
       style="stroke-width:0.085;stroke-miterlimit:4;stroke-dasharray:none" />
    <path
       id="15"
       d="m 10.8924,-105.513 0,51.9313"
       inkscape:connector-curvature="0"
       style="stroke-width:0.085;stroke-miterlimit:4;stroke-dasharray:none" />
    <path
       id="16"
       d="m 10.8924,-53.5817 11.2703,7.2616"
       inkscape:connector-curvature="0"
       style="stroke-width:0.085;stroke-miterlimit:4;stroke-dasharray:none" />
    <path
       id="17"
       d="m 22.1627,-46.3201 0,62.6484"
       inkscape:connector-curvature="0"
       style="stroke-width:0.085;stroke-miterlimit:4;stroke-dasharray:none" />
    <path
       id="18"
       d="M 22.1627,16.3283 48.3273,61.2576"
       inkscape:connector-curvature="0"
       style="stroke-width:0.085;stroke-miterlimit:4;stroke-dasharray:none" />
    <path
       id="19"
       d="m 48.3273,61.2576 0,59.0584"
       inkscape:connector-curvature="0"
       style="stroke-width:0.085;stroke-miterlimit:4;stroke-dasharray:none" />
    <path
       id="20"
       d="m 48.3273,120.316 -74.4087,0"
       inkscape:connector-curvature="0"
       style="stroke-width:0.085;stroke-miterlimit:4;stroke-dasharray:none" />
    <path
       id="21"
       d="M -26.0814,120.316 -55.6818,69.4864"
       inkscape:connector-curvature="0"
       style="stroke-width:0.085;stroke-miterlimit:4;stroke-dasharray:none" />
    <circle
       cx="-1.94867"
       cy="86.527802"
       r="2"
       id="circle29"
       d="m 0.05132997,86.527802 c 0,1.104569 -0.8954305,2 -1.99999997,2 -1.1045695,0 -2,-0.895431 -2,-2 0,-1.10457 0.8954305,-2 2,-2 1.10456947,0 1.99999997,0.89543 1.99999997,2 z"
       sodipodi:cx="-1.94867"
       sodipodi:cy="86.527802"
       sodipodi:rx="2"
       sodipodi:ry="2"
       style="stroke-width:0.085;stroke-miterlimit:4;stroke-dasharray:none" />
    <circle
       cx="-12.6009"
       cy="-10.5733"
       r="1.6"
       id="circle31"
       d="m -11.0009,-10.5733 c 0,0.8836553 -0.716344,1.5999997 -1.6,1.5999997 -0.883655,0 -1.6,-0.7163444 -1.6,-1.5999997 0,-0.883656 0.716345,-1.6 1.6,-1.6 0.883656,0 1.6,0.716344 1.6,1.6 z"
       sodipodi:cx="-12.6009"
       sodipodi:cy="-10.5733"
       sodipodi:rx="1.6"
       sodipodi:ry="1.6"
       style="stroke-width:0.085;stroke-miterlimit:4;stroke-dasharray:none" />
    <circle
       cx="14.5113"
       cy="20.709999"
       r="1.5"
       id="circle33"
       d="m 16.0113,20.709999 c 0,0.828427 -0.671573,1.5 -1.5,1.5 -0.828427,0 -1.5,-0.671573 -1.5,-1.5 0,-0.828427 0.671573,-1.5 1.5,-1.5 0.828427,0 1.5,0.671573 1.5,1.5 z"
       sodipodi:cx="14.5113"
       sodipodi:cy="20.709999"
       sodipodi:rx="1.5"
       sodipodi:ry="1.5"
       style="stroke-width:0.085;stroke-miterlimit:4;stroke-dasharray:none" />
    <circle
       cx="-45.892502"
       cy="14.7164"
       r="1"
       id="circle35"
       d="m -44.892502,14.7164 c 0,0.552285 -0.447715,1 -1,1 -0.552285,0 -1,-0.447715 -1,-1 0,-0.552285 0.447715,-1 1,-1 0.552285,0 1,0.447715 1,1 z"
       sodipodi:cx="-45.892502"
       sodipodi:cy="14.7164"
       sodipodi:rx="1"
       sodipodi:ry="1"
       style="stroke-width:0.085;stroke-miterlimit:4;stroke-dasharray:none" />
    <circle
       cx="-62.1362"
       cy="0.15149599"
       r="1"
       id="circle37"
       d="m -61.1362,0.15149599 c 0,0.55228475 -0.447715,1.00000001 -1,1.00000001 -0.552285,0 -1,-0.44771526 -1,-1.00000001 0,-0.55228475 0.447715,-1 1,-1 0.552285,0 1,0.44771525 1,1 z"
       sodipodi:cx="-62.1362"
       sodipodi:cy="0.15149599"
       sodipodi:rx="1"
       sodipodi:ry="1"
       style="stroke-width:0.085;stroke-miterlimit:4;stroke-dasharray:none" />
    <circle
       cx="-57.063599"
       cy="-2.8427899"
       r="1"
       id="circle39"
       d="m -56.063599,-2.8427899 c 0,0.5522848 -0.447715,1 -1,1 -0.552284,0 -1,-0.4477152 -1,-1 0,-0.5522847 0.447716,-1 1,-1 0.552285,0 1,0.4477153 1,1 z"
       sodipodi:cx="-57.063599"
       sodipodi:cy="-2.8427899"
       sodipodi:rx="1"
       sodipodi:ry="1"
       style="stroke-width:0.085;stroke-miterlimit:4;stroke-dasharray:none" />
    <circle
       cx="-62.1362"
       cy="-5.83708"
       r="1"
       id="circle41"
       d="m -61.1362,-5.83708 c 0,0.5522847 -0.447715,1 -1,1 -0.552285,0 -1,-0.4477153 -1,-1 0,-0.5522848 0.447715,-1 1,-1 0.552285,0 1,0.4477152 1,1 z"
       sodipodi:cx="-62.1362"
       sodipodi:cy="-5.83708"
       sodipodi:rx="1"
       sodipodi:ry="1"
       style="stroke-width:0.085;stroke-miterlimit:4;stroke-dasharray:none" />
    <circle
       cx="-26.386"
       cy="48.444099"
       r="1"
       id="circle43"
       d="m -25.386,48.444099 c 0,0.552285 -0.447715,1 -1,1 -0.552284,0 -1,-0.447715 -1,-1 0,-0.552284 0.447716,-1 1,-1 0.552285,0 1,0.447716 1,1 z"
       sodipodi:cx="-26.386"
       sodipodi:cy="48.444099"
       sodipodi:rx="1"
       sodipodi:ry="1"
       style="stroke-width:0.085;stroke-miterlimit:4;stroke-dasharray:none" />
    <circle
       cx="-44.101398"
       cy="65.440697"
       r="1"
       id="circle45"
       d="m -43.101398,65.440697 c 0,0.552284 -0.447716,1 -1,1 -0.552285,0 -1,-0.447716 -1,-1 0,-0.552285 0.447715,-1 1,-1 0.552284,0 1,0.447715 1,1 z"
       sodipodi:cx="-44.101398"
       sodipodi:cy="65.440697"
       sodipodi:rx="1"
       sodipodi:ry="1"
       style="stroke-width:0.085;stroke-miterlimit:4;stroke-dasharray:none" />
  </g>
</svg>
