<?xml version="1.0" encoding="UTF-8" standalone="no"?>
<svg
   xmlns:dc="http://purl.org/dc/elements/1.1/"
   xmlns:cc="http://creativecommons.org/ns#"
   xmlns:rdf="http://www.w3.org/1999/02/22-rdf-syntax-ns#"
   xmlns:svg="http://www.w3.org/2000/svg"
   xmlns="http://www.w3.org/2000/svg"
   xmlns:sodipodi="http://sodipodi.sourceforge.net/DTD/sodipodi-0.dtd"
   xmlns:inkscape="http://www.inkscape.org/namespaces/inkscape"
   width="810.56592"
   height="414.15845"
   viewBox="0 0 228.75969 116.88472"
   version="1.1"
   id="svg2"
   inkscape:version="0.48.3.1 r9886"
   sodipodi:docname="panel.svg">
  <metadata
     id="metadata49">
    <rdf:RDF>
      <cc:Work
         rdf:about="">
        <dc:format>image/svg+xml</dc:format>
        <dc:type
           rdf:resource="http://purl.org/dc/dcmitype/StillImage" />
      </cc:Work>
    </rdf:RDF>
  </metadata>
  <defs
     id="defs47" />
  <sodipodi:namedview
     pagecolor="#ffffff"
     bordercolor="#666666"
     borderopacity="1"
     objecttolerance="10"
     gridtolerance="10"
     guidetolerance="10"
     inkscape:pageopacity="0"
     inkscape:pageshadow="2"
     inkscape:window-width="1350"
     inkscape:window-height="876"
     id="namedview45"
     showgrid="false"
     fit-margin-top="5"
     fit-margin-left="5"
     fit-margin-right="5"
     fit-margin-bottom="5"
     inkscape:zoom="0.83386565"
     inkscape:cx="348.95709"
     inkscape:cy="187.95323"
     inkscape:window-x="2127"
     inkscape:window-y="222"
     inkscape:window-maximized="0"
     inkscape:current-layer="svg2" />
  <g
     id="g6"
     transform="matrix(0,-1,-1,0,131.36792,56.231914)"
     style="fill:none;stroke:#000000;stroke-width:0.1;stroke-linecap:butt;stroke-linejoin:miter;stroke-miterlimit:4;stroke-dasharray:none">
    <path
       id="1"
       d="M 26.3397,25 46.6603,60.1962"
       inkscape:connector-curvature="0"
       style="stroke-width:0.1;stroke-miterlimit:4;stroke-dasharray:none" />
    <path
       d="m 46.6603,60.1962 a 10,10 0 0 1 1.3397,5"
       id="path9"
       inkscape:connector-curvature="0"
       style="stroke-width:0.1;stroke-miterlimit:4;stroke-dasharray:none" />
    <path
       id="3"
       d="M 48,65.1962 48,108"
       inkscape:connector-curvature="0"
       style="stroke-width:0.1;stroke-miterlimit:4;stroke-dasharray:none" />
    <path
       d="M 48,108 A 10,10 0 0 1 38,118"
       id="path12"
       inkscape:connector-curvature="0"
       style="stroke-width:0.1;stroke-miterlimit:4;stroke-dasharray:none" />
    <path
       id="5"
       d="m 38,118 -52.911,0"
       inkscape:connector-curvature="0"
       style="stroke-width:0.1;stroke-miterlimit:4;stroke-dasharray:none" />
    <path
       d="m -14.911,118 a 10,10 0 0 1 -8.6603,-5"
       id="path15"
       inkscape:connector-curvature="0"
       style="stroke-width:0.1;stroke-miterlimit:4;stroke-dasharray:none" />
    <path
       id="7"
       d="M -23.5713,113 -48.0476,70.6057"
       inkscape:connector-curvature="0"
       style="stroke-width:0.1;stroke-miterlimit:4;stroke-dasharray:none" />
    <path
       d="m -48.0476,70.6057 a 5,5 0 0 1 1.8301,-6.8301"
       id="path18"
       inkscape:connector-curvature="0"
       style="stroke-width:0.1;stroke-miterlimit:4;stroke-dasharray:none" />
    <path
       id="9"
       d="M -46.2175,63.7756 -28.6046,53.6068"
       inkscape:connector-curvature="0"
       style="stroke-width:0.1;stroke-miterlimit:4;stroke-dasharray:none" />
    <path
       d="m -27.8725,50.8748 a 2,2 0 0 1 -0.7321,2.732"
       id="path21"
       inkscape:connector-curvature="0"
       style="stroke-width:0.1;stroke-miterlimit:4;stroke-dasharray:none" />
    <path
       id="11"
       d="M -27.8725,50.8748 -54.5041,4.74759"
       inkscape:connector-curvature="0"
       style="stroke-width:0.1;stroke-miterlimit:4;stroke-dasharray:none" />
    <path
       d="m -54.5041,4.74759 a 5,5 0 0 1 -0.6698,-2.5"
       id="path24"
       inkscape:connector-curvature="0"
       style="stroke-width:0.1;stroke-miterlimit:4;stroke-dasharray:none" />
    <path
       id="13"
       d="m -55.1739,2.24759 0,-7.63506"
       inkscape:connector-curvature="0"
       style="stroke-width:0.1;stroke-miterlimit:4;stroke-dasharray:none" />
    <path
       d="m -55.1739,-5.38747 a 5,5 0 0 1 2.8205,-4.5"
       id="path27"
       inkscape:connector-curvature="0"
       style="stroke-width:0.1;stroke-miterlimit:4;stroke-dasharray:none" />
    <path
       id="15"
       d="m -52.3534,-9.88747 3.8206,-1.85033"
       inkscape:connector-curvature="0"
       style="stroke-width:0.1;stroke-miterlimit:4;stroke-dasharray:none" />
    <path
       d="m -48.5328,-11.7378 a 10,10 0 0 1 4.3589,-1"
       id="path30"
       inkscape:connector-curvature="0"
       style="stroke-width:0.1;stroke-miterlimit:4;stroke-dasharray:none" />
    <path
       id="17"
       d="m -44.1739,-12.7378 9,0"
       inkscape:connector-curvature="0"
       style="stroke-width:0.1;stroke-miterlimit:4;stroke-dasharray:none" />
    <path
       id="18"
       d="m -35.1739,-12.7378 0.5,-24.5"
       inkscape:connector-curvature="0"
       style="stroke-width:0.1;stroke-miterlimit:4;stroke-dasharray:none" />
    <path
       id="19"
       d="m -34.6739,-37.2378 -5,0"
       inkscape:connector-curvature="0"
       style="stroke-width:0.1;stroke-miterlimit:4;stroke-dasharray:none" />
    <path
       id="20"
       d="m -39.6739,-37.2378 0,-3.7622"
       inkscape:connector-curvature="0"
       style="stroke-width:0.1;stroke-miterlimit:4;stroke-dasharray:none" />
    <path
       d="m -39.6739,-41 a 4,4 0 0 1 4,-4"
       id="path36"
       inkscape:connector-curvature="0"
       style="stroke-width:0.1;stroke-miterlimit:4;stroke-dasharray:none" />
    <path
       id="22"
       d="m 38.9953,-45 -74.6692,0"
       inkscape:connector-curvature="0"
       style="stroke-width:0.1;stroke-miterlimit:4;stroke-dasharray:none" />
    <path
       d="m 38.9953,-45 a 5,5 0 0 1 4.3301,2.5"
       id="path39"
       inkscape:connector-curvature="0"
       style="stroke-width:0.1;stroke-miterlimit:4;stroke-dasharray:none" />
    <path
       id="24"
       d="M 52,-27.4752 43.3254,-42.5"
       inkscape:connector-curvature="0"
       style="stroke-width:0.1;stroke-miterlimit:4;stroke-dasharray:none" />
    <path
       d="m 52,-27.4752 a 5,5 0 0 1 -1.8301,6.8301"
       id="path42"
       inkscape:connector-curvature="0"
       style="stroke-width:0.1;stroke-miterlimit:4;stroke-dasharray:none" />
    <path
       id="26"
       d="M 30,-9 50.1699,-20.6451"
       inkscape:connector-curvature="0"
       style="stroke-width:0.1;stroke-miterlimit:4;stroke-dasharray:none" />
    <path
       d="M 25,-0.339745 A 10,10 0 0 1 30,-9"
       id="path45"
       inkscape:connector-curvature="0"
       style="stroke-width:0.1;stroke-miterlimit:4;stroke-dasharray:none" />
    <path
       id="28"
       d="M 25,20 25,-0.339745"
       inkscape:connector-curvature="0"
       style="stroke-width:0.1;stroke-miterlimit:4;stroke-dasharray:none" />
    <path
       d="M 26.3397,25 A 10,10 0 0 1 25,20"
       id="path48"
       inkscape:connector-curvature="0"
       style="stroke-width:0.1;stroke-miterlimit:4;stroke-dasharray:none" />
    <circle
       cx="-1.94867"
       cy="86.527802"
       r="2.2"
       id="circle50"
       sodipodi:cx="-1.94867"
       sodipodi:cy="86.527802"
       sodipodi:rx="2.2"
       sodipodi:ry="2.2"
       d="m 0.25133002,86.527802 c 0,1.215026 -0.98497357,2.2 -2.20000002,2.2 -1.2150265,0 -2.2000001,-0.984974 -2.2000001,-2.2 0,-1.215027 0.9849736,-2.200001 2.2000001,-2.200001 1.21502645,0 2.20000002,0.984974 2.20000002,2.200001 z"
       style="stroke-width:0.1;stroke-miterlimit:4;stroke-dasharray:none" />
    <circle
       cx="-12.6009"
       cy="-10.5733"
       r="1.8"
       id="circle52"
       sodipodi:cx="-12.6009"
       sodipodi:cy="-10.5733"
       sodipodi:rx="1.8"
       sodipodi:ry="1.8"
       d="m -10.8009,-10.5733 c 0,0.9941122 -0.805887,1.7999996 -1.8,1.7999996 -0.994112,0 -1.8,-0.8058874 -1.8,-1.7999996 0,-0.994113 0.805888,-1.8 1.8,-1.8 0.994113,0 1.8,0.805887 1.8,1.8 z"
       style="stroke-width:0.1;stroke-miterlimit:4;stroke-dasharray:none" />
    <circle
       cx="14.5113"
       cy="20.709999"
       r="1.7"
       id="circle54"
       sodipodi:cx="14.5113"
       sodipodi:cy="20.709999"
       sodipodi:rx="1.7"
       sodipodi:ry="1.7"
       d="m 16.2113,20.709999 c 0,0.938884 -0.761116,1.7 -1.7,1.7 -0.938884,0 -1.7,-0.761116 -1.7,-1.7 0,-0.938884 0.761116,-1.7 1.7,-1.7 0.938884,0 1.7,0.761116 1.7,1.7 z"
       style="stroke-width:0.1;stroke-miterlimit:4;stroke-dasharray:none" />
    <circle
       cx="-26.3568"
       cy="48.500099"
       r="1.2"
       id="circle56"
       sodipodi:cx="-26.3568"
       sodipodi:cy="48.500099"
       sodipodi:rx="1.2"
       sodipodi:ry="1.2"
       d="m -25.1568,48.500099 c 0,0.662742 -0.537258,1.2 -1.2,1.2 -0.662742,0 -1.2,-0.537258 -1.2,-1.2 0,-0.662742 0.537258,-1.2 1.2,-1.2 0.662742,0 1.2,0.537258 1.2,1.2 z"
       style="stroke-width:0.1;stroke-miterlimit:4;stroke-dasharray:none" />
    <circle
       cx="-46.673901"
       cy="-2.23785"
       r="1.2"
       id="circle58"
       sodipodi:cx="-46.673901"
       sodipodi:cy="-2.23785"
       sodipodi:rx="1.2"
       sodipodi:ry="1.2"
       d="m -45.473901,-2.23785 c 0,0.6627418 -0.537258,1.2000001 -1.2,1.2000001 -0.662741,0 -1.2,-0.5372583 -1.2,-1.2000001 0,-0.6627417 0.537259,-1.2 1.2,-1.2 0.662742,0 1.2,0.5372583 1.2,1.2 z"
       style="stroke-width:0.1;stroke-miterlimit:4;stroke-dasharray:none" />
    <circle
       cx="-51.673901"
       cy="-5.7378502"
       r="1.2"
       id="circle60"
       sodipodi:cx="-51.673901"
       sodipodi:cy="-5.7378502"
       sodipodi:rx="1.2"
       sodipodi:ry="1.2"
       d="m -50.473901,-5.7378502 c 0,0.6627417 -0.537258,1.2000001 -1.2,1.2000001 -0.662741,0 -1.2,-0.5372584 -1.2,-1.2000001 0,-0.6627417 0.537259,-1.2 1.2,-1.2 0.662742,0 1.2,0.5372583 1.2,1.2 z"
       style="stroke-width:0.1;stroke-miterlimit:4;stroke-dasharray:none" />
    <circle
       cx="-51.673901"
       cy="1.26215"
       r="1.2"
       id="circle62"
       sodipodi:cx="-51.673901"
       sodipodi:cy="1.26215"
       sodipodi:rx="1.2"
       sodipodi:ry="1.2"
       d="m -50.473901,1.26215 c 0,0.6627418 -0.537258,1.2000001 -1.2,1.2000001 -0.662741,0 -1.2,-0.5372583 -1.2,-1.2000001 0,-0.66274168 0.537259,-1.2 1.2,-1.2 0.662742,0 1.2,0.53725832 1.2,1.2 z"
       style="stroke-width:0.1;stroke-miterlimit:4;stroke-dasharray:none" />
    <circle
       cx="-45.890701"
       cy="14.6717"
       r="1.2"
       id="circle64"
       sodipodi:cx="-45.890701"
       sodipodi:cy="14.6717"
       sodipodi:rx="1.2"
       sodipodi:ry="1.2"
       d="m -44.690701,14.6717 c 0,0.662741 -0.537259,1.2 -1.2,1.2 -0.662742,0 -1.2,-0.537259 -1.2,-1.2 0,-0.662742 0.537258,-1.200001 1.2,-1.200001 0.662741,0 1.2,0.537259 1.2,1.200001 z"
       style="stroke-width:0.1;stroke-miterlimit:4;stroke-dasharray:none" />
    <circle
       cx="-44.101398"
       cy="65.440697"
       r="1.2"
       id="circle66"
       sodipodi:cx="-44.101398"
       sodipodi:cy="65.440697"
       sodipodi:rx="1.2"
       sodipodi:ry="1.2"
       d="m -42.901398,65.440697 c 0,0.662741 -0.537259,1.2 -1.2,1.2 -0.662742,0 -1.200001,-0.537259 -1.200001,-1.2 0,-0.662742 0.537259,-1.2 1.200001,-1.2 0.662741,0 1.2,0.537258 1.2,1.2 z"
       style="stroke-width:0.1;stroke-miterlimit:4;stroke-dasharray:none" />
  </g>
</svg>
