  0
SECTION
  2
HEADER
  9
$ACADVER
  1
AC1009
  9
$INSBASE
 10
0.0
 20
0.0
 30
0.0
  9
$EXTMIN
 10
0.0
 20
0.0
 30
0.0
  9
$EXTMAX
 10
0.0
 20
0.0
 30
0.0
  0
ENDSEC
  0
SECTION
  2
TABLES
  0
TABLE
  2
VPORT
 70
0
  0
ENDTAB
  0
TABLE
  2
LTYPE
 70
1
  0
LTYPE
  2
CONTINUOUS
 70
0
  3
Solid line
 72
65
 73
0
 40
0.0
  0
ENDTAB
  0
TABLE
  2
LAYER
 70
1
  0
LAYER
  2
0
 70
64
 62
7
  6
continuous
  0
ENDTAB
  0
TABLE
  2
STYLE
 70
1
  0
STYLE
  2
STANDARD
 70
0
 40
0
 41
1.0
 50
0.0
 71
0
 42
1
 3
ARIAL.TTF
 4

  0
ENDTAB
  0
TABLE
  2
VIEW
 70
0
  0
ENDTAB
  0
ENDSEC
  0
SECTION
  2
BLOCKS
  0
BLOCK
  8
0
  2
SHAPE2DVIEW
 70
0
 10
0.0
 20
0.0
 30
0.0
  3
SHAPE2DVIEW
  0
LINE
  8
0
 62
0
 10
-21.1428564148
 20
14.4827067962
 30
0.0
 11
-24.2285330175
 21
18.2932000588
 31
0.0
  0
ARC
  8
0
 62
0
 10
-18.0342819946
 20
17.0
 30
0.0
 40
4.0
 50
-140.999785464
 51
-89.9999710597
  0
ARC
  8
0
 62
0
 10
-31.9999957511
 20
12.0
 30
0.0
 40
10.0
 50
38.9999716027
 51
-90.0
  0
LINE
  8
0
 62
0
 10
-14.5000017559
 20
13.0
 30
0.0
 11
-18.0342799742
 21
13.0
 31
0.0
  0
LINE
  8
0
 62
0
 10
-31.9999957511
 20
2.0
 30
0.0
 11
-16.5000015428
 21
2.0
 31
0.0
  0
ARC
  8
0
 62
0
 10
-14.5
 20
16.0
 30
0.0
 40
3.0
 50
-90.0000335353
 51
0.0
  0
ARC
  8
0
 62
0
 10
-16.5
 20
-3.0
 30
0.0
 40
5.0
 50
1.20741826973e-06
 51
90.0000176794
  0
LINE
  8
0
 62
0
 10
-11.5
 20
76.0
 30
0.0
 11
-11.5
 21
16.0
 31
0.0
  0
LINE
  8
0
 62
0
 10
-11.5
 20
-2.99999991386
 30
0.0
 11
-11.5
 21
-5.0
 31
0.0
  0
ARC
  8
0
 62
0
 10
-4.5
 20
76.0
 30
0.0
 40
7.0
 50
90.0
 51
-180.0
  0
ARC
  8
0
 62
0
 10
-4.5
 20
-5.0
 30
0.0
 40
7.0
 50
-180.0
 51
-90.0
  0
LINE
  8
0
 62
0
 10
4.5
 20
83.0
 30
0.0
 11
-4.5
 21
83.0
 31
0.0
  0
LINE
  8
0
 62
0
 10
-4.5
 20
-12.0
 30
0.0
 11
4.5
 21
-12.0
 31
0.0
  0
ARC
  8
0
 62
0
 10
4.5
 20
76.0
 30
0.0
 40
7.0
 50
-0.0
 51
90.0
  0
ARC
  8
0
 62
0
 10
4.5
 20
-5.0
 30
0.0
 40
7.0
 50
-90.0
 51
-0.0
  0
LINE
  8
0
 62
0
 10
11.5
 20
16.0
 30
0.0
 11
11.5
 21
76.0
 31
0.0
  0
LINE
  8
0
 62
0
 10
11.5
 20
-5.0
 30
0.0
 11
11.5
 21
-2.99999991386
 31
0.0
  0
ARC
  8
0
 62
0
 10
14.5
 20
16.0
 30
0.0
 40
3.0
 50
180.0
 51
-89.999969406
  0
ARC
  8
0
 62
0
 10
16.5
 20
-2.99999991386
 30
0.0
 40
5.0
 50
90.0
 51
180.0
  0
LINE
  8
0
 62
0
 10
14.5000016019
 20
13.0
 30
0.0
 11
18.0342798202
 21
13.0
 31
0.0
  0
LINE
  8
0
 62
0
 10
16.5
 20
2.00000008614
 30
0.0
 11
32.0
 21
2.00000008614
 31
0.0
  0
ARC
  8
0
 62
0
 10
18.0342809281
 20
17.0
 30
0.0
 40
4.0
 50
-90.0000158701
 51
-39.0000159248
  0
ARC
  8
0
 62
0
 10
32.0
 20
12.0000000861
 30
0.0
 40
10.0
 50
-90.0
 51
140.999968502
  0
LINE
  8
0
 62
0
 10
21.1428640743
 20
14.4827175718
 30
0.0
 11
24.2285438451
 21
18.2932082689
 31
0.0
  0
CIRCLE
  8
0
 62
0
 10
-35.4999957511
 20
5.93782217351
 30
0.0
 40
1.05
  0
CIRCLE
  8
0
 62
0
 10
-31.9999957511
 20
5.0
 30
0.0
 40
1.05
  0
CIRCLE
  8
0
 62
0
 10
-28.4999957511
 20
5.93782217351
 30
0.0
 40
1.05
  0
CIRCLE
  8
0
 62
0
 10
-7.0
 20
0.0
 30
0.0
 40
1.05
  0
CIRCLE
  8
0
 62
0
 10
32.0
 20
5.00000008614
 30
0.0
 40
1.05
  0
CIRCLE
  8
0
 62
0
 10
28.5
 20
5.93782225964
 30
0.0
 40
1.05
  0
CIRCLE
  8
0
 62
0
 10
0.0
 20
0.0
 30
0.0
 40
4.0
  0
CIRCLE
  8
0
 62
0
 10
3.5
 20
6.06217782649
 30
0.0
 40
1.05
  0
CIRCLE
  8
0
 62
0
 10
0.0
 20
7.0
 30
0.0
 40
1.05
  0
CIRCLE
  8
0
 62
0
 10
-3.5
 20
6.06217782649
 30
0.0
 40
1.05
  0
CIRCLE
  8
0
 62
0
 10
7.0
 20
0.0
 30
0.0
 40
1.05
  0
CIRCLE
  8
0
 62
0
 10
32.0
 20
19.0000000861
 30
0.0
 40
1.05
  0
CIRCLE
  8
0
 62
0
 10
28.5
 20
18.0621779126
 30
0.0
 40
1.05
  0
CIRCLE
  8
0
 62
0
 10
-31.9999957511
 20
19.0
 30
0.0
 40
1.05
  0
CIRCLE
  8
0
 62
0
 10
-28.4999957511
 20
18.0621778265
 30
0.0
 40
1.05
  0
CIRCLE
  8
0
 62
0
 10
-35.4999957511
 20
18.0621778265
 30
0.0
 40
1.05
  0
CIRCLE
  8
0
 62
0
 10
-31.9999957511
 20
12.0
 30
0.0
 40
4.0
  0
CIRCLE
  8
0
 62
0
 10
-24.9999957511
 20
12.0
 30
0.0
 40
1.05
  0
CIRCLE
  8
0
 62
0
 10
25.0
 20
12.0000000861
 30
0.0
 40
1.05
  0
CIRCLE
  8
0
 62
0
 10
32.0
 20
12.0000000861
 30
0.0
 40
4.0
  0
CIRCLE
  8
0
 62
0
 10
35.5
 20
18.0621779126
 30
0.0
 40
1.05
  0
CIRCLE
  8
0
 62
0
 10
-3.5
 20
-6.06217782649
 30
0.0
 40
1.05
  0
CIRCLE
  8
0
 62
0
 10
0.0
 20
-7.0
 30
0.0
 40
1.05
  0
CIRCLE
  8
0
 62
0
 10
3.5
 20
-6.06217782649
 30
0.0
 40
1.05
  0
CIRCLE
  8
0
 62
0
 10
7.0
 20
71.0
 30
0.0
 40
1.05
  0
CIRCLE
  8
0
 62
0
 10
0.0
 20
71.0
 30
0.0
 40
4.0
  0
CIRCLE
  8
0
 62
0
 10
0.0
 20
64.0
 30
0.0
 40
1.05
  0
CIRCLE
  8
0
 62
0
 10
3.5
 20
64.9378221735
 30
0.0
 40
1.05
  0
CIRCLE
  8
0
 62
0
 10
-3.5
 20
64.9378221735
 30
0.0
 40
1.05
  0
CIRCLE
  8
0
 62
0
 10
-7.0
 20
71.0
 30
0.0
 40
1.05
  0
CIRCLE
  8
0
 62
0
 10
0.0
 20
78.0
 30
0.0
 40
1.05
  0
CIRCLE
  8
0
 62
0
 10
-3.5
 20
77.0621778265
 30
0.0
 40
1.05
  0
CIRCLE
  8
0
 62
0
 10
3.5
 20
77.0621778265
 30
0.0
 40
1.05
  0
CIRCLE
  8
0
 62
0
 10
35.5
 20
5.93782225964
 30
0.0
 40
1.05
  0
CIRCLE
  8
0
 62
0
 10
39.0
 20
12.0000000861
 30
0.0
 40
1.05
  0
CIRCLE
  8
0
 62
0
 10
-38.9999957511
 20
12.0
 30
0.0
 40
1.05
  0
ENDBLK
  0
ENDSEC
  0
SECTION
  2
ENTITIES
  0
INSERT
  2
SHAPE2DVIEW
  8
0
 10
0.0
 20
0.0
 30
0.0
  0
ENDSEC
  0
EOF
