0
SECTION
2
ENTITIES
0
LINE
8
sheet_layer
10
22.3397
20
25
30
0
11
46.6603
21
67.1244
31
0
0
ARC
8
sheet_layer
10
38
20
72.1244
30
0
40
10
50
-30
51
0
0
LINE
8
sheet_layer
10
48
20
72.1244
30
0
11
48
21
108
31
0
0
ARC
8
sheet_layer
10
38
20
108
30
0
40
10
50
0
51
90
0
LINE
8
sheet_layer
10
38
20
118
30
0
11
-14.911
21
118
31
0
0
ARC
8
sheet_layer
10
-14.911
20
108
30
0
40
10
50
90
51
150
0
LINE
8
sheet_layer
10
-23.5713
20
113
30
0
11
-48.0476
21
70.6057
31
0
0
ARC
8
sheet_layer
10
-43.7175
20
68.1057
30
0
40
5
50
150
51
-120
0
LINE
8
sheet_layer
10
-46.2175
20
63.7756
30
0
11
-28.6046
21
53.6068
31
0
0
ARC
8
sheet_layer
10
-29.6046
20
51.8748
30
0
40
2
50
-30
51
60
0
LINE
8
sheet_layer
10
-27.8725
20
50.8748
30
0
11
-54.5041
21
4.74759
31
0
0
ARC
8
sheet_layer
10
-50.1739
20
2.24759
30
0
40
5
50
150
51
180
0
LINE
8
sheet_layer
10
-55.1739
20
2.24759
30
0
11
-55.1739
21
-5.38747
31
0
0
ARC
8
sheet_layer
10
-50.1739
20
-5.38747
30
0
40
5
50
180
51
-115.842
0
LINE
8
sheet_layer
10
-52.3534
20
-9.88747
30
0
11
-48.5328
21
-11.7378
31
0
0
ARC
8
sheet_layer
10
-44.1739
20
-2.73785
30
0
40
10
50
-115.842
51
-90
0
LINE
8
sheet_layer
10
-44.1739
20
-12.7378
30
0
11
-35.1739
21
-12.7378
31
0
0
LINE
8
sheet_layer
10
-35.1739
20
-12.7378
30
0
11
-34.6739
21
-37.2378
31
0
0
LINE
8
sheet_layer
10
-34.6739
20
-37.2378
30
0
11
-39.6739
21
-37.2378
31
0
0
LINE
8
sheet_layer
10
-39.6739
20
-37.2378
30
0
11
-39.6739
21
-46
31
0
0
ARC
8
sheet_layer
10
-35.6739
20
-46
30
0
40
4
50
180
51
-90
0
LINE
8
sheet_layer
10
46.418
20
-50
30
0
11
-35.6739
21
-50
31
0
0
ARC
8
sheet_layer
10
46.418
20
-45
30
0
40
5
50
-90
51
-30
0
LINE
8
sheet_layer
10
57
20
-36.6714
30
0
11
50.7481
21
-47.5
31
0
0
ARC
8
sheet_layer
10
52.6699
20
-34.1714
30
0
40
5
50
-30
51
60
0
LINE
8
sheet_layer
10
26
20
-13
30
0
11
55.1699
21
-29.8412
31
0
0
ARC
8
sheet_layer
10
31
20
-4.33975
30
0
40
10
50
180
51
-120
0
LINE
8
sheet_layer
10
21
20
20
30
0
11
21
21
-4.33975
31
0
0
ARC
8
sheet_layer
10
31
20
20
30
0
40
10
50
150
51
180
0
CIRCLE
8
sheet_layer
10
-1.94867
20
86.5278
30
0
40
2.2
0
CIRCLE
8
sheet_layer
10
-12.6009
20
-10.5733
30
0
40
1.8
0
CIRCLE
8
sheet_layer
10
46.9095
20
-38.1486
30
0
40
1.7
0
CIRCLE
8
sheet_layer
10
-31.6739
20
-43
30
0
40
1.7
0
CIRCLE
8
sheet_layer
10
14.5113
20
20.71
30
0
40
1.7
0
CIRCLE
8
sheet_layer
10
40.3542
20
110.354
30
0
40
1.7
0
CIRCLE
8
sheet_layer
10
-26.3568
20
48.5001
30
0
40
1.2
0
CIRCLE
8
sheet_layer
10
-46.6739
20
-2.23785
30
0
40
1.2
0
CIRCLE
8
sheet_layer
10
-51.6739
20
-5.73785
30
0
40
1.2
0
CIRCLE
8
sheet_layer
10
-51.6739
20
1.26215
30
0
40
1.2
0
CIRCLE
8
sheet_layer
10
-45.8907
20
14.6717
30
0
40
1.2
0
CIRCLE
8
sheet_layer
10
-44.1014
20
65.4407
30
0
40
1.2
0
ENDSEC
0
EOF